<svg t="1719396718607" class="icon" viewBox="0 0 1024 1024" version="1.1" xmlns="http://www.w3.org/2000/svg" p-id="2958" width="200" height="200"><path d="M511.996865 512.001045m-511.996865 0a511.996865 511.996865 0 1 0 1023.993731 0 511.996865 511.996865 0 1 0-1023.993731 0Z" fill="#27D1CF" p-id="2959"></path><path d="M235.320029 0.00418h139.9068v242.976994h-139.9068zM493.962037 0.00418h139.936058v242.976994H493.962037z" fill="#F9E7CD" p-id="2960"></path><path d="M493.962037 0.00418h36.849146v242.976994H493.962037z" fill="#E8D4BB" p-id="2961"></path><path d="M235.30958 50.87368h139.929788v42.40379H235.30958zM493.966217 50.87368h139.929788v42.40379h-139.929788z" fill="#FF6954" p-id="2962"></path><path d="M493.964127 50.87368h36.847056v42.40379h-36.847056z" fill="#EF3C21" p-id="2963"></path><path d="M235.320029 0.00418h36.849145v242.976994h-36.849145z" fill="#E8D4BB" p-id="2964"></path><path d="M235.320029 50.87368h36.847056v42.40379h-36.847056z" fill="#EF3C21" p-id="2965"></path><path d="M845.92958 357.898348l-73.957425 101.772438a106.160983 106.160983 0 0 0-80.832811 37.302628 106.181881 106.181881 0 0 1-69.986837 36.738388c-3.573529 0.376161-7.188854 0.564241-10.825076 0.564241l-31.116871-4.200464-33.896282-4.597523-35.589007-4.806501L3.475309 452.187272c0.752322-6.603715 1.650929-13.165634 2.674923-19.685757 5.726006-36.780183 15.359906-72.243803 28.483744-105.9938-0.626935-2.02709-0.9613-4.158668-0.961301-6.373838 0-8.233746 4.702012-15.401702 11.577399-18.89164 2.194272-4.848297 4.472136-9.654798 6.812693-14.440401 4.681114-9.550309 9.654798-18.933435 14.921051-28.149379 8.317337-14.607584 17.3452-28.755416 27.041794-42.422597h683.024716c13.270123 0 25.035602 8.526315 29.173373 21.106809l7.021671 21.315788 9.278637 28.149379 23.405571 71.096512z" fill="#F9E7CD" p-id="2966"></path><path d="M771.972155 357.898348c-31.137769 0-60.645506 13.625386-80.832811 37.323526a106.232035 106.232035 0 0 1-80.811913 37.281731H6.150232a469.156311 469.156311 0 0 0-2.674923 19.685757 513.898568 513.898568 0 0 0-3.46904 59.809593c0 0.898607 0 1.818111 0.020898 2.716718 0.062693 13.374612 0.647833 26.644735 1.713622 39.747675 2.69582 32.767799 8.463622 64.678788 17.052631 95.3986 4.012384 14.398606 8.630804 28.546437 13.855262 42.422597 28.462846 75.629251 74.29179 142.732187 132.659432 196.439614h587.521628c74.10371 0 139.054169-49.548758 158.677232-120.998443l20.730649-75.441171 11.619194-42.422597 68.168726-248.370724 11.974457-43.592876h-252.027845z" fill="#E8D4BB" p-id="2967"></path><path d="M943.856817 649.859858l-11.619194 42.422597H32.648682c-5.224458-13.87616-9.842879-28.023992-13.855262-42.422597h925.063397z" fill="#FF6954" p-id="2968"></path><path d="M452.036808 513.073104a21.190401 21.190401 0 0 0-21.20294 21.202939c0 11.702785 9.498064 21.20294 21.20294 21.20294s21.20294-9.500154 21.20294-21.20294a21.190401 21.190401 0 0 0-21.20294-21.202939zM230.118558 513.073104a21.190401 21.190401 0 0 0-21.202939 21.202939c0 11.702785 9.498064 21.20294 21.202939 21.20294 11.732042 0 21.20294-9.500154 21.20294-21.20294a21.173683 21.173683 0 0 0-21.20294-21.202939zM304.101061 513.073104a21.190401 21.190401 0 0 0-21.20294 21.202939c0 11.702785 9.500154 21.20294 21.20294 21.20294 11.704875 0 21.20294-9.500154 21.202939-21.20294a21.192491 21.192491 0 0 0-21.202939-21.202939zM378.054306 513.073104a21.190401 21.190401 0 0 0-21.20294 21.202939c0 11.702785 9.498064 21.20294 21.20294 21.20294 11.732042 0 21.20294-9.500154 21.202939-21.20294a21.173683 21.173683 0 0 0-21.202939-21.202939zM156.163223 513.073104a21.190401 21.190401 0 0 0-21.202939 21.202939c0 11.702785 9.500154 21.20294 21.202939 21.20294 11.704875 0 21.20294-9.500154 21.20294-21.20294a21.190401 21.190401 0 0 0-21.20294-21.202939zM29.430416 534.276043c0 11.702785-9.508513 21.211299-21.211299 21.211299-2.256966 0-4.451238-0.355263-6.478328-1.023994-1.065789-13.10294-1.650929-26.373063-1.713622-39.747675 2.50774-1.065789 5.287151-1.650929 8.19195-1.650928 11.702785 0 21.211299 9.487615 21.211299 21.211298zM82.182811 513.073104a21.190401 21.190401 0 0 0-21.202939 21.202939c0 11.702785 9.500154 21.20294 21.202939 21.20294 11.704875 0 21.20294-9.500154 21.20294-21.20294a21.192491 21.192491 0 0 0-21.20294-21.202939zM525.992143 513.073104a21.190401 21.190401 0 0 0-21.20294 21.202939c0 11.702785 9.498064 21.20294 21.20294 21.20294 11.732042 0 21.230107-9.500154 21.230107-21.20294 0-11.734132-9.498064-21.20294-21.230107-21.202939zM76.074375 320.133877c0 11.702785-9.487615 21.190401-21.190401 21.190401-9.529411 0-17.53328-6.227554-20.249998-14.816563-0.626935-2.02709-0.9613-4.158668-0.961301-6.373838 0-8.233746 4.702012-15.401702 11.577399-18.89164 2.883901-1.483746 6.16486-2.319659 9.6339-2.319659 11.702785 0.00209 21.190401 9.510603 21.190401 21.211299zM350.74502 298.928847a21.190401 21.190401 0 0 0-21.20294 21.20294c0 11.702785 9.470897 21.20294 21.20294 21.20294 11.704875 0 21.20294-9.500154 21.20294-21.20294 0-11.704875-9.498064-21.20294-21.20294-21.20294zM498.682857 298.928847a21.190401 21.190401 0 0 0-21.20294 21.20294c0 11.702785 9.470897 21.20294 21.20294 21.20294 11.704875 0 21.20294-9.500154 21.20294-21.20294-0.00209-11.704875-9.500154-21.20294-21.20294-21.20294zM128.82677 298.928847c-11.702785 0-21.20294 9.498064-21.202939 21.20294 0 11.702785 9.500154 21.20294 21.202939 21.20294 11.704875 0 21.20294-9.500154 21.20294-21.20294 0-11.704875-9.498064-21.20294-21.20294-21.20294zM424.700355 298.928847c-11.704875 0-21.20294 9.498064-21.20294 21.20294 0 11.702785 9.498064 21.20294 21.20294 21.20294s21.20294-9.500154 21.202939-21.20294c0-11.704875-9.498064-21.20294-21.202939-21.20294zM572.636102 298.928847c-11.704875 0-21.20294 9.498064-21.202939 21.20294 0 11.702785 9.498064 21.20294 21.202939 21.20294 11.732042 0 21.20294-9.500154 21.20294-21.20294a21.190401 21.190401 0 0 0-21.20294-21.20294zM276.764608 298.928847c-11.704875 0-21.20294 9.498064-21.20294 21.20294 0 11.702785 9.498064 21.20294 21.20294 21.20294 11.704875 0 21.20294-9.500154 21.202939-21.20294-0.00209-11.704875-9.500154-21.20294-21.202939-21.20294zM202.809273 298.928847c-11.702785 0-21.20294 9.498064-21.20294 21.20294 0 11.702785 9.500154 21.20294 21.20294 21.20294 11.704875 0 21.20294-9.500154 21.202939-21.20294 0-11.704875-9.498064-21.20294-21.202939-21.20294zM645.289502 298.928847c-11.702785 0-21.20294 9.498064-21.202939 21.20294 0 11.702785 9.500154 21.20294 21.202939 21.20294 11.704875 0 21.20294-9.500154 21.20294-21.20294 0-11.704875-9.498064-21.20294-21.20294-21.20294zM599.972555 513.073104c-11.702785 0-21.20294 9.498064-21.202939 21.202939 0 11.702785 9.500154 21.20294 21.202939 21.20294 11.704875 0 21.20294-9.500154 21.20294-21.20294 0-11.704875-9.498064-21.20294-21.20294-21.202939z" fill="#4A5370" p-id="2969"></path><path d="M963.960531 752.781677a513.346865 513.346865 0 0 1-97.258507 128.438071c-92.013151 88.418724-217.00308 142.773983-354.698889 142.773983-124.989929 0-239.510044-44.784052-328.409418-119.222128-6.227554-5.20356-12.32972-10.553405-18.285603-16.049534a513.083553 513.083553 0 0 1-108.334357-141.791785c41.356808 12.371516 66.016249 31.033279 140.308039 31.033279 111.176462 0 111.176462-41.795662 222.332027-41.795662 111.176462 0 111.176462 41.795662 222.352924 41.795662s111.176462-41.795662 222.373822-41.795662c47.939625 0.00209 75.211295 7.776083 99.619962 16.613776z" fill="#73DDE3" p-id="2970"></path><path d="M866.702024 881.219748c-92.013151 88.418724-217.00308 142.773983-354.698889 142.773983-124.989929 0-239.510044-44.784052-328.409418-119.222128 50.802628-11.890866 72.118416-34.857583 154.518564-34.857582 111.176462 0 111.176462 41.795662 222.352924 41.795662s111.176462-41.795662 222.373823-41.795662c37.971359 0.00209 62.986063 4.871284 83.862996 11.305727z" fill="#27D1CF" p-id="2971"></path><path d="M902.792579 458.228835m-29.256964 0a29.256964 29.256964 0 1 0 58.513928 0 29.256964 29.256964 0 1 0-58.513928 0Z" fill="#4A5370" p-id="2972"></path></svg>