<svg t="1720182726101" class="icon" viewBox="0 0 1024 1024" version="1.1" xmlns="http://www.w3.org/2000/svg" p-id="4574" width="200" height="200"><path d="M158.464445 883.73982C41.677334 838.884221 43.209856 714.620502 43.209856 714.620502v-135.120771h294.094709l117.239994 117.239994h506.710977s17.888864 137.102132-75.510093 186.781741l-727.280998 0.218354z" fill="#F0F0FF" p-id="4575"></path><path d="M121.793082 623.198863s-73.371031 115.489117 8.80695 169.948254c0 0-91.166893-36.509619-73.237593-169.948254h64.430643z" fill="#FFFFFF" p-id="4576"></path><path d="M454.544559 696.743769l-117.239994-117.244038H182.309525v-292.109303h504.729616l79.484947 154.999084h151.02423v254.354257z" fill="#D3D3E6" p-id="4577"></path><path d="M464.552456 686.735871l-117.239994-117.239994a14.164713 14.164713 0 0 0-10.007897-4.144684H182.309525a14.152583 14.152583 0 0 1 14.152582 14.152582v-292.109303a14.152583 14.152583 0 0 1-14.152582 14.152582h504.729616a14.140452 14.140452 0 0 1-12.591755-7.694961l79.484947 154.999084a14.152583 14.152583 0 0 0 12.591755 7.694961h151.02423a14.152583 14.152583 0 0 1-14.152583-14.152582v254.354256a14.140452 14.140452 0 0 1 14.152583-14.152582l-463.003759-0.008087c3.752456 0.004044 7.351256 1.49613 10.007897 4.148728z m467.148444 10.007898v-254.354257a14.152583 14.152583 0 0 0-14.152582-14.152583h-151.02423c5.305197 0 10.173685 2.972042 12.587711 7.694962l-79.480903-154.999084a14.164713 14.164713 0 0 0-12.591755-7.694961H182.309525a14.152583 14.152583 0 0 0-14.152583 14.152582v292.109303a14.152583 14.152583 0 0 0 14.152583 14.152583h154.99504a14.164713 14.164713 0 0 1-10.007898-4.144685l117.239994 117.239994a14.164713 14.164713 0 0 0 10.007898 4.144685h463.003759a14.148539 14.148539 0 0 0 14.152582-14.148539z" fill="#6E6E96" p-id="4578"></path><path d="M364.408782 299.521213V85.400727h141.525825v214.120486" fill="#F0F0FF" p-id="4579"></path><path d="M378.561365 299.521213V85.400727a14.152583 14.152583 0 0 1-14.152583 14.152582h141.525825a14.152583 14.152583 0 0 1-14.152582-14.152582v214.120486h28.305165V85.400727a14.152583 14.152583 0 0 0-14.152583-14.152583h-141.525825a14.152583 14.152583 0 0 0-14.152582 14.152583v214.120486h28.305165z" fill="#6E6E96" p-id="4580"></path><path d="M364.408782 85.400727h141.525825v68.15075h-141.525825z" fill="#FFBDBD" p-id="4581"></path><path d="M364.408782 99.553309h141.525825a14.152583 14.152583 0 0 1-14.152582-14.152582v68.15075a14.152583 14.152583 0 0 1 14.152582-14.152583h-141.525825a14.152583 14.152583 0 0 1 14.152583 14.152583V85.400727a14.152583 14.152583 0 0 1-14.152583 14.152582z m0 68.15075h141.525825a14.152583 14.152583 0 0 0 14.152583-14.152582V85.400727a14.152583 14.152583 0 0 0-14.152583-14.152583h-141.525825a14.152583 14.152583 0 0 0-14.152582 14.152583v68.15075a14.152583 14.152583 0 0 0 14.152582 14.152582z" fill="#6E6E96" p-id="4582"></path><path d="M182.309525 442.389512h584.214563l-79.484947-154.999084H182.309525z" fill="#F0F0FF" p-id="4583"></path><path d="M182.309525 456.542094h584.214563a14.144495 14.144495 0 0 0 12.587711-20.610203l-79.480903-154.999084a14.164713 14.164713 0 0 0-12.591755-7.694961H182.309525a14.152583 14.152583 0 0 0-14.152583 14.152582v154.999084a14.152583 14.152583 0 0 0 14.152583 14.152582z m0-154.999083h504.729616a14.140452 14.140452 0 0 1-12.591755-7.694962l79.484947 154.999084a14.152583 14.152583 0 0 1 12.591755-20.610204H182.309525a14.152583 14.152583 0 0 1 14.152582 14.152583V287.390428a14.152583 14.152583 0 0 1-14.152582 14.152583z" fill="#6E6E96" p-id="4584"></path><path d="M196.462107 538.283368h158.512968l111.874143 111.874143h436.546517v46.586258H454.544559l-129.221166-115.327373H196.462107zM196.462107 400.801137h534.033549l23.954257 34.208814L196.462107 428.236929zM689.2429 400.801137l-40.43595-99.258126h38.232191l43.456515 99.258126z" fill="#6E6E96" opacity=".15" p-id="4585"></path><path d="M869.858158 456.542094h33.537577v193.615417h-33.537577z" fill="#6E6E96" opacity=".15" p-id="4586"></path><path d="M196.462107 456.542094h673.396051v35.915211H196.462107z" fill="#F0F0FF" opacity=".53" p-id="4587"></path><path d="M57.362439 623.198863h262.566798l112.58986 112.589859h41.058663L330.038225 592.8719l-272.675786 0.780414z" fill="#FFFFFF" opacity=".76" p-id="4588"></path><path d="M449.324277 99.553309h42.457748v173.684537h-42.457748z" fill="#6E6E96" opacity=".15" p-id="4589"></path><path d="M975.290855 694.907977a14.152583 14.152583 0 0 0-14.035319-12.320834H460.407771l-113.095309-113.099353a14.180888 14.180888 0 0 0-10.007897-4.140641H43.209856a14.152583 14.152583 0 0 0-14.152582 14.152582v135.120771c-0.016174 1.168599-0.210267 134.494014 124.332459 182.333786 1.621482 0.614626 3.344053 0.938114 5.078755 0.938114L885.757574 897.678092c2.312936 0 4.597568-0.57419 6.643626-1.657874 100.883652-53.662549 83.674112-195.111546 82.889655-201.112241z m-93.350435 174.468993l-720.657589 0.210267c-103.568599-41.370021-103.956784-150.175075-103.920392-154.821165v-121.109714h274.078913l88.934829 88.934828H258.862865v29.364587h267.406982v-1.059422h421.868267c1.479956 32.627768-1.002812 121.279545-66.197694 158.480619z" fill="#6E6E96" p-id="4590"></path><path d="M959.253957 697.055126h-0.897678c-1.827705 13.178076-5.074712 27.480272-10.444606 41.616679 0.084915-0.954288 0.206223-1.920708 0.206223-2.883083h-121.728384c42.13426 2.567683 120.838793 12.729237 94.519033 47.4435a121.61112 121.61112 0 0 1-36.190175 26.990997l-717.903902 0.194093c-111.449566-39.538272-113.734197-146.742063-113.762501-153.818354v56.763986s-1.512305 113.305576 113.762501 154.206539l717.903902-0.194092c92.193966-45.304438 74.535587-170.320265 74.535587-170.320265z m-185.091518 38.733596h52.227073c-28.422429-1.730659-52.227073 0-52.227073 0zM378.561365 167.704059h70.762912v26.873733h-70.762912z" fill="#6E6E96" opacity=".15" p-id="4591"></path><path d="M980.790144 937.240625c0-75.469657-88.942916-180.8417-218.588659-51.208087-12.628147-15.786195-114.538872-175.516285-242.425652-7.945664 0 0-103.33407-170.898499-194.735492 0 0 0-53.634244-67.980919-147.05342-63.67449-43.440341 2.583857-86.071963 31.184205-111.275691 116.099699" fill="#5FDFFF" p-id="4592"></path><path d="M994.942726 937.240625c0-43.302859-26.069057-97.948002-75.898278-118.582467-28.903617-11.973085-89.031875-20.44846-166.854904 57.370526a14.140452 14.140452 0 0 1 21.063086 1.168599 139.43933 139.43933 0 0 1-2.822429-3.776718c-15.466751-20.982215-62.530153-84.84271-131.271269-85.420944-45.122477-0.376054-89.072311 27.043563-130.636424 81.502701a14.152583 14.152583 0 0 1 23.363892 1.265645c-2.094582-3.45323-51.86315-84.494961-117.838445-82.756215-38.284758 1.006855-72.428874 29.065361-101.490192 83.40319a14.172801 14.172801 0 0 1 11.229064-7.42404 14.176844 14.176844 0 0 1 12.36127 5.329458c-2.37359-3.008435-59.279103-73.629822-158.816238-69.044385-58.644258 3.477492-100.366072 45.943326-124.190933 126.208688a14.152583 14.152583 0 0 0 27.136566 8.062928c20.076449-67.645301 53.233928-103.305765 98.546454-105.998799 84.462613-3.893982 134.631496 57.714232 135.128858 58.345032a14.188975 14.188975 0 0 0 12.36127 5.280935 14.140452 14.140452 0 0 0 11.204801-7.399779c23.893603-44.677681 49.873701-67.705955 77.220534-68.458063 49.529995-1.358648 92.501279 68.40954 92.929901 69.121213a14.172801 14.172801 0 0 0 23.359848 1.249471c35.862644-46.990618 72.16604-70.66991 107.899289-70.366641 54.588533 0.456926 95.331796 55.740957 108.720139 73.90883 1.443563 1.953056 2.591944 3.501753 3.505797 4.654178a14.152583 14.152583 0 0 0 21.063087 1.168599c49.764524-49.76048 96.795577-67.479514 136.006318-51.232349 37.949139 15.725541 58.417817 59.359975 58.417817 92.428495a14.152583 14.152583 0 1 0 28.301121-0.008088z" fill="#6E6E96" p-id="4593"></path><path d="M146.054652 874.912652a25.272469 19.207076 0 1 0 50.544937 0 25.272469 19.207076 0 1 0-50.544937 0Z" fill="#FFFFFF" opacity=".31" p-id="4594"></path><path d="M415.382341 868.260938m-18.620755 0a18.620755 18.620755 0 1 0 37.24151 0 18.620755 18.620755 0 1 0-37.24151 0Z" fill="#FFFFFF" opacity=".31" p-id="4595"></path><path d="M623.198863 879.967146m-26.283368 0a26.283368 26.283368 0 1 0 52.566735 0 26.283368 26.283368 0 1 0-52.566735 0Z" fill="#FFFFFF" opacity=".69" p-id="4596"></path><path d="M866.825462 880.978045m-15.163481 0a15.163481 15.163481 0 1 0 30.326962 0 15.163481 15.163481 0 1 0-30.326962 0Z" fill="#FFFFFF" opacity=".69" p-id="4597"></path><path d="M925.45759 903.217817m-9.098089 0a9.098089 9.098089 0 1 0 18.196177 0 9.098089 9.098089 0 1 0-18.196177 0Z" fill="#FFFFFF" opacity=".31" p-id="4598"></path><path d="M685.874585 892.097931m-10.108987 0a10.108988 10.108988 0 1 0 20.217975 0 10.108988 10.108988 0 1 0-20.217975 0Z" fill="#FFFFFF" opacity=".31" p-id="4599"></path><path d="M458.422366 899.174222m-7.076291 0a7.076291 7.076291 0 1 0 14.152582 0 7.076291 7.076291 0 1 0-14.152582 0Z" fill="#FFFFFF" p-id="4600"></path><path d="M252.199021 887.043437m-11.119887 0a11.119886 11.119886 0 1 0 22.239773 0 11.119886 11.119886 0 1 0-22.239773 0Z" fill="#FFFFFF" opacity=".25" p-id="4601"></path><path d="M449.579024 711.891076h498.55909l-0.020218 23.897646H473.57776z" fill="#FFFFFF" opacity=".76" p-id="4602"></path><path d="M764.724688 512h62.675723v90.980888h-62.675723z" fill="#9FECFF" p-id="4603"></path><path d="M827.400411 617.13347h-62.675723a14.152583 14.152583 0 0 1-14.152582-14.152582v-90.980888a14.152583 14.152583 0 0 1 14.152582-14.152583h62.675723a14.152583 14.152583 0 0 1 14.152582 14.152583v90.980888a14.152583 14.152583 0 0 1-14.152582 14.152582z m-48.52314-28.305165h34.370557v-62.675722h-34.370557v62.675722z" fill="#6E6E96" p-id="4604"></path><path d="M623.198863 512h62.675722v90.980888h-62.675722z" fill="#9FECFF" p-id="4605"></path><path d="M685.874585 617.13347h-62.675722a14.152583 14.152583 0 0 1-14.152583-14.152582v-90.980888a14.152583 14.152583 0 0 1 14.152583-14.152583h62.675722a14.152583 14.152583 0 0 1 14.152583 14.152583v90.980888a14.152583 14.152583 0 0 1-14.152583 14.152582z m-48.52314-28.305165h34.370558v-62.675722h-34.370558v62.675722z" fill="#6E6E96" p-id="4606"></path><path d="M479.65124 512h62.675723v90.980888h-62.675723z" fill="#9FECFF" p-id="4607"></path><path d="M542.326963 617.13347h-62.675723a14.152583 14.152583 0 0 1-14.152583-14.152582v-90.980888a14.152583 14.152583 0 0 1 14.152583-14.152583h62.675723a14.152583 14.152583 0 0 1 14.152582 14.152583v90.980888a14.152583 14.152583 0 0 1-14.152582 14.152582z m-48.523141-28.305165h34.370558v-62.675722h-34.370558v62.675722z" fill="#6E6E96" p-id="4608"></path><path d="M602.980888 333.406539h28.305165V400.801137h-28.305165zM515.538146 333.406539h28.305165V400.801137h-28.305165zM428.095404 333.406539h28.305165V400.801137h-28.305165zM340.652662 333.406539h28.305165V400.801137h-28.305165zM253.209919 333.406539h28.305166V400.801137h-28.305166z" fill="#6E6E96" p-id="4609"></path><path d="M432.519097 735.788722H258.862865v-23.836992h149.823283z" fill="#FFFFFF" p-id="4610"></path><path d="M648.80695 301.543011H196.462107V400.801137h26.42085V333.406539h438.903933z" fill="#FFFFFF" opacity=".76" p-id="4611"></path></svg>