<svg t="1718363556442" class="icon" viewBox="0 0 1150 1024" version="1.1" xmlns="http://www.w3.org/2000/svg" p-id="10741" width="256" height="256"><path d="M15.11258 766.58c-12.3 9.4-14.66 27-5.26 39.3 9.41 12.32 27.01 14.64 39.3 5.28 83.21-63.58 159.18-90.19 225.65-79.22 35.77 5.91 60.62 21.08 86.94 37.14 28.82 17.6 61.49 37.53 108.87 44.28 66.04 9.27 105.48-19.79 140.29-45.52 28.78-21.3 53.8-40.5 94.02-38.79 42.01 0.93 68.22 19.35 98.57 40.67 32.26 22.67 68.83 48.37 125.53 50.41 2.38 0.09 4.76 0.13 7.15 0.13 68.92 0 138.18-35.74 206.01-106.32 10.73-11.15 10.38-28.91-0.78-39.65-11.14-10.71-28.89-10.37-39.65 0.8-11.61 12.08-23.16 22.57-34.66 32.2l70.95-199.07a37.853 37.853 0 0 0-3.87-35.28 37.847 37.847 0 0 0-31.37-16.63h-40.82V308.38c0-27.67-30.51-43.59-83.65-43.87V110.73c0-27.95-22.73-50.69-50.68-50.69h-59.92c-23.2 0-43.4 15.7-49.12 38.19l-42.35 166.23h-6.46V110.73c0-27.95-22.73-50.69-50.68-50.69H659.20258c-23.2 0-43.4 15.7-49.12 38.19l-42.35 166.23h-6.6V110.73c0-27.95-22.73-50.69-50.68-50.69h-59.92c-23.2 0-43.4 15.7-49.12 38.19l-42.35 166.23h-74.75c-15.94 0-31.6 5.48-44.05 15.41L155.79258 347.1c-16.78 13.36-26.41 33.33-26.41 54.8v54.43h-91.47c-12 0-23.41 5.77-30.53 15.42-7.12 9.67-9.25 22.27-5.69 33.73L91.90258 716.71c-25.17 13.54-50.76 29.99-76.79 49.87z m856.8-650.46h50.33v30.81h-58.18l7.85-30.81zM849.78258 203h72.47v61.46h-88.12L849.78258 203z m-186.39-86.88h50.33v30.81h-58.18l7.85-30.81zM641.26258 203h72.47v61.46H625.60258L641.26258 203z m-186.53-86.88h50.33v30.81h-58.18l7.85-30.81zM432.60258 203h72.47v61.46h-88.12L432.60258 203zM185.45258 401.89c0-4.29 1.92-8.25 5.26-10.92l84.49-67.24c2.58-2.06 5.82-3.19 9.12-3.19h692.66c12.61 0 22.41 1.28 28.91 2.66v133.12H185.45258v-54.43z m891.59 110.5l-27.13 76.08H98.02258L65.48258 512.39h1011.56zM122.01258 644.55h907.92l-38.76 108.71c-0.04 0.11-0.04 0.22-0.08 0.33-20.34 7.53-40.39 11.14-60.05 10.51-40.07-1.44-65.67-19.42-95.3-40.25-33.05-23.24-70.5-49.56-129.57-50.87-59.46-0.97-96.23 25.83-128.61 49.78-31.17 23.05-55.78 41.22-99.04 35.08-35.95-5.11-59.87-19.71-87.56-36.62-28.36-17.3-60.48-36.91-107.01-44.59-44.72-7.47-91.9-1.47-140.99 16.9l-20.95-48.98z" fill="#bfc" p-id="10742"></path><path d="M1099.91258 819.04c-58.65 61.02-116.05 90.77-170.72 89-40.07-1.44-65.66-19.42-95.29-40.25-33.05-23.22-70.5-49.54-129.57-50.85-59.6-0.89-96.25 25.83-128.62 49.78-31.16 23.04-55.91 41.22-99.02 35.08-35.95-5.11-59.87-19.71-87.57-36.62-28.35-17.32-60.49-36.93-107.02-44.61-82.38-13.69-172.84 16.65-268.84 89.95-12.3 9.4-14.66 27-5.26 39.3 9.38 12.3 26.98 14.64 39.3 5.28 83.21-63.58 159.15-90.19 225.65-79.22 35.77 5.91 60.63 21.1 86.95 37.16 28.82 17.58 61.49 37.53 108.87 44.28 66.01 9.29 105.48-19.79 140.27-45.52 28.12-20.81 52.49-38.82 91.21-38.82 0.93 0 1.88 0 2.83 0.04 42.02 0.91 68.23 19.33 98.58 40.67 32.26 22.67 68.82 48.35 125.5 50.4 2.4 0.09 4.79 0.13 7.19 0.13 68.9 0 138.17-35.74 205.99-106.32 10.73-11.15 10.38-28.91-0.78-39.65-11.15-10.71-28.92-10.38-39.65 0.79z" fill="#bfc" p-id="10743"></path></svg> 
