<svg t="1718367836788" class="icon" viewBox="0 0 1024 1024" version="1.1" xmlns="http://www.w3.org/2000/svg" p-id="12298" width="200" height="200"><path d="M807.2 768l-21.3 64H494.1l-21.3-64h334.4m88.8-64H384l64 192h384l64-192z" p-id="12299"></path><path d="M768 640v64H640v-64h128m64-64H576v192h256V576z" p-id="12300"></path><path d="M736 512v64h-64v-64h64m64-64H608v192h192V448zM672 384h64v64h-64zM192 128h-64v768h64V128z" p-id="12301"></path><path d="M896 128H128v64h768v-64z" p-id="12302"></path><path d="M896 128h-64v320h64V128zM384 832H128v64h256v-64zM512 256H256v64h256v-64zM512 384H256v64h256v-64zM448 512H256v64h192v-64z" p-id="12303"></path></svg>