<svg t="1720919848108" class="icon" viewBox="0 0 1024 1024" version="1.1" xmlns="http://www.w3.org/2000/svg" p-id="34613" width="200" height="200"><path d="M956.688544 942.97886a20.616066 20.616066 0 0 1-20.616066-20.616066V187.606201c0-80.196497-54.838736-145.549426-122.459432-145.549426H214.097846c-67.620697 0-122.459432 65.352929-122.459432 145.549426v726.922488a20.616066 20.616066 0 0 1-20.616067 20.616066 20.616066 20.616066 0 0 1-20.616066-20.616066V187.606201c0-103.08033 73.393195-186.781558 163.691565-186.781558h599.5152c90.298369 0 163.691564 83.701228 163.691564 186.781558v734.756593a20.616066 20.616066 0 0 1-20.616066 20.616066z" fill="#ed8888" p-id="34614"></path><path d="M874.22428 1024h-12.988121a103.08033 103.08033 0 0 1-82.464264-41.232132 103.08033 103.08033 0 0 1-82.464265 41.232132h-12.988121a103.08033 103.08033 0 0 1-82.464264-41.232132 103.08033 103.08033 0 0 1-82.464265 41.232132h-12.988121a103.08033 103.08033 0 0 1-82.464264-41.232132 103.08033 103.08033 0 0 1-82.464264 41.232132h-12.988122a103.08033 103.08033 0 0 1-82.464264-41.232132 103.08033 103.08033 0 0 1-82.464264 41.232132H149.569559a103.08033 103.08033 0 0 1-103.08033-103.08033 20.616066 20.616066 0 0 1 20.616066-20.616066 20.616066 20.616066 0 0 1 20.616066 20.616066 61.848198 61.848198 0 0 0 61.848198 61.848198h12.988122a61.848198 61.848198 0 0 0 51.334004-28.03785 36.284276 36.284276 0 0 1 30.511778-16.492853 36.284276 36.284276 0 0 1 30.511778 16.286692 61.848198 61.848198 0 0 0 51.334004 28.03785H339.237367a61.848198 61.848198 0 0 0 51.334004-28.03785 36.284276 36.284276 0 0 1 30.511778-16.492852 36.284276 36.284276 0 0 1 30.511778 16.492852 61.848198 61.848198 0 0 0 51.334004 28.03785h12.988122a61.848198 61.848198 0 0 0 51.334004-28.03785 36.284276 36.284276 0 0 1 30.511778-16.286692 36.284276 36.284276 0 0 1 30.511777 16.492853 61.848198 61.848198 0 0 0 51.334005 28.03785h12.988121a61.848198 61.848198 0 0 0 51.334005-28.03785 36.284276 36.284276 0 0 1 30.511778-16.492853 36.284276 36.284276 0 0 1 30.511777 16.286692 61.848198 61.848198 0 0 0 51.334005 28.03785h12.988121a61.848198 61.848198 0 0 0 61.848199-61.848198 20.616066 20.616066 0 0 1 20.616066-20.616066 20.616066 20.616066 0 0 1 20.616066 20.616066 103.08033 103.08033 0 0 1-98.132475 103.286491zM682.494866 575.394403H363.564325a20.616066 20.616066 0 0 1-20.616066-20.616066 20.616066 20.616066 0 0 1 20.616066-20.616066h318.930541a20.616066 20.616066 0 0 1 20.616066 20.616066 20.616066 20.616066 0 0 1-20.616066 20.616066z" fill="#ed8888" p-id="34615"></path><path d="M514.473928 842.578619a20.616066 20.616066 0 0 1-20.616066-20.616066V466.129253a20.616066 20.616066 0 0 1 20.616066-20.616066 20.616066 20.616066 0 0 1 20.616066 20.616066v355.8333a20.616066 20.616066 0 0 1-20.616066 20.616066z" fill="#ed8888" p-id="34616"></path><path d="M513.236964 473.344876a111.945239 111.945239 0 0 1-111.739078-111.739078 111.945239 111.945239 0 0 1 111.739078-111.739078 111.945239 111.945239 0 0 1 111.739078 111.739078 111.945239 111.945239 0 0 1-111.739078 111.739078z m0-182.452184a70.713107 70.713107 0 0 0-70.506946 70.506946 70.713107 70.713107 0 0 0 70.506946 70.506945 70.713107 70.713107 0 0 0 70.506946-70.506945 70.713107 70.713107 0 0 0-70.506946-70.506946z" fill="#FFAF04" p-id="34617"></path><path d="M514.680089 736.8182A297.077512 297.077512 0 0 1 218.014898 440.15301a20.616066 20.616066 0 0 1 20.616066-20.616066 20.616066 20.616066 0 0 1 20.616066 20.616066 255.84538 255.84538 0 0 0 255.433059 255.433058A255.84538 255.84538 0 0 0 770.113147 440.15301a20.616066 20.616066 0 0 1 20.616066-20.616066 20.616066 20.616066 0 0 1 20.616066 20.616066 297.077512 297.077512 0 0 1-296.66519 296.66519z" fill="#ed8888" p-id="34618"></path><path d="M296.974431 491.280854a20.616066 20.616066 0 0 1-15.049728-6.597141L238.218643 437.472921l-47.210791 43.70606a20.616066 20.616066 0 0 1-29.068653-1.030803 20.616066 20.616066 0 0 1 1.236964-29.068653l77.516408-71.74391 71.74391 77.516408a20.616066 20.616066 0 0 1-1.236964 29.068653 20.616066 20.616066 0 0 1-14.225086 5.360178zM850.928126 489.425408a20.616066 20.616066 0 0 1-15.049729-6.597141l-43.70606-47.210792-47.210791 43.70606a20.616066 20.616066 0 0 1-29.068653-1.030803 20.616066 20.616066 0 0 1 1.030803-30.099456l77.516409-71.74391 71.743909 77.516408a20.616066 20.616066 0 0 1-1.236963 29.068653 20.616066 20.616066 0 0 1-14.018925 6.390981z" fill="#ed8888" p-id="34619"></path></svg>