<svg t="1720918918172" class="icon" viewBox="0 0 1024 1024" version="1.1" xmlns="http://www.w3.org/2000/svg" p-id="7961" width="200" height="200"><path d="M410.168889 132.551111C356.693333 167.253333 320.853333 227.555556 320.853333 295.822222c0 55.751111 23.893333 106.382222 62.008889 141.653334a321.422222 321.422222 0 0 0-187.164444 331.662222c-38.115556-4.551111-91.591111-13.653333-134.257778-28.444445-29.013333-11.377778-43.235556-29.013333-43.235556-53.475555 0-139.377778 98.986667-256 230.968889-283.306667a159.971556 159.971556 0 0 1 58.595556-308.906667c36.408889 0 71.68 12.515556 100.124444 35.271112l1.137778 1.137777 1.137778 1.137778z m106.382222 9.102222c88.177778 0 160.426667 71.68 160.426667 159.857778 0 67.697778-42.097778 125.155556-101.262222 149.048889a285.468444 285.468444 0 0 1 91.192888 35.726222 284.558222 284.558222 0 0 0-142.449777 336.782222l-10.752 0.113778c-54.044444 0-165.546667-7.395556-242.915556-34.133333l-0.568889-0.568889c-19.342222-9.102222-43.235556-20.48-43.235555-54.613333 0-139.377778 99.555556-256.568889 230.968889-283.306667A160.938667 160.938667 0 0 1 356.693333 301.511111c0-88.177778 71.68-159.857778 159.857778-159.857778z m325.404445 492.657778c-1.137778 1.137778-2.275556 1.137778-3.982223 1.706667-1.706667 0.568889-3.982222 0-6.257777-1.137778a9.784889 9.784889 0 0 1-5.12-8.533333L817.493333 455.111111c0-5.688889 3.982222-10.24 9.671111-10.808889 64.853333-3.413333 127.431111 28.444444 162.702223 82.488889 1.137778 2.275556 1.706667 5.12 1.137777 7.395556-0.568889 2.844444-1.706667 5.12-3.982222 6.826666l-145.066666 93.297778z m109.226666-30.151111c6.826667-1.137778 13.653333 1.706667 17.066667 7.395556 19.342222 30.72 30.72 66.56 32.995555 102.968888 5.688889 109.226667-71.68 206.506667-179.768888 225.28-9.102222 1.706667-17.635556 2.844444-26.737778 3.413334-120.035556 6.257778-223.004444-85.333333-229.262222-204.8a216.746667 216.746667 0 0 1 179.2-225.28c9.102222-1.706667 17.635556-2.844444 26.737777-3.413334a17.066667 17.066667 0 0 1 17.635556 15.928889l9.671111 176.924445c145.635556-97.28 148.48-97.848889 152.462222-98.417778z" fill="#ed8888" p-id="7962"></path></svg>