<svg t="1721095201366" class="icon" viewBox="0 0 1024 1024" version="1.1" xmlns="http://www.w3.org/2000/svg" p-id="3265" width="200" height="200"><path d="M303.3088 551.68a30.4128 30.4128 0 0 1-18.3808-6.144 30.72 30.72 0 0 1-6.144-43.008l138.24-184.32a30.71488 30.71488 0 0 1 42.5472-6.5024l104.7552 75.4176 135.2704-162.3552a30.70464 30.70464 0 0 1 43.264-3.9424 30.70464 30.70464 0 0 1 3.9424 43.264l-153.6 184.32a30.75072 30.75072 0 0 1-41.5744 5.2736L448.1024 379.1872l-120.1664 160.2048a30.71488 30.71488 0 0 1-24.6272 12.288zM697.6 823.04h-450.56c-16.9472 0-30.72-13.7728-30.72-30.72s13.7728-30.72 30.72-30.72h450.56c16.9472 0 30.72 13.7728 30.72 30.72s-13.7728 30.72-30.72 30.72z" fill="#bfc" p-id="3266"></path><path d="M922.88 961.28h-686.08c-90.3168 0-163.84-73.5232-163.84-163.84s73.5232-163.84 163.84-163.84h686.08c16.9472 0 30.72 13.7728 30.72 30.72s-13.7728 30.72-30.72 30.72h-686.08c-56.4736 0-102.4 45.9264-102.4 102.4s45.9264 102.4 102.4 102.4h686.08c16.9472 0 30.72 13.7728 30.72 30.72s-13.7728 30.72-30.72 30.72z" fill="#bfc" p-id="3267"></path><path d="M911.36 953.3952c-4.4544 0-8.96-0.9728-13.2608-3.0208-56.4736-27.136-92.9792-85.1456-92.9792-147.7632 0-68.3008 43.0592-130.0992 107.1104-153.7536a30.72 30.72 0 0 1 39.4752 18.176 30.72 30.72 0 0 1-18.176 39.4752c-40.0384 14.7968-66.9696 53.4016-66.9696 96.1024 0 39.168 22.8352 75.4176 58.1632 92.3648a30.6944 30.6944 0 0 1 14.3872 41.0112 30.80192 30.80192 0 0 1-27.7504 17.408z" fill="#bfc" p-id="3268"></path><path d="M103.68 807.68c-16.9472 0-30.72-13.7728-30.72-30.72V238.592c0-87.0912 70.8608-157.952 157.952-157.952h566.272c86.272 0 156.416 70.1952 156.416 156.416v417.024c0 16.9472-13.7728 30.72-30.72 30.72s-30.72-13.7728-30.72-30.72V237.1072c0-52.3776-42.5984-94.976-94.976-94.976H230.912c-53.1968 0-96.512 43.3152-96.512 96.512v538.368c0 16.9472-13.7728 30.6688-30.72 30.6688z" fill="#bfc" p-id="3269"></path></svg>