<svg t="1719215064747" class="icon" viewBox="0 0 1024 1024" version="1.1" xmlns="http://www.w3.org/2000/svg" p-id="92049" width="200" height="200"><path d="M121.173333 728.015238V295.838476a45.83619 45.83619 0 0 1 23.064381-39.789714l354.157715-202.947048a45.83619 45.83619 0 0 1 45.494857-0.048762l355.961904 202.99581a45.83619 45.83619 0 0 1 23.113143 39.789714v432.176762a45.83619 45.83619 0 0 1-23.113143 39.838476l-355.961904 202.99581a45.83619 45.83619 0 0 1-45.494857 0L144.237714 767.75619a45.83619 45.83619 0 0 1-23.015619-39.740952z" fill="#E7A601" p-id="92050"></path><path d="M732.40381 160.426667L311.881143 863.817143l-167.643429-96.060953a45.83619 45.83619 0 0 1-23.015619-39.740952V295.789714a45.83619 45.83619 0 0 1 23.015619-39.789714l354.157715-202.947048a45.83619 45.83619 0 0 1 45.494857-0.097523l188.513524 107.422476z" fill="#FED055" p-id="92051"></path><path d="M563.102476 731.428571V313.636571H511.609905a247.02781 247.02781 0 0 1-52.077715 40.96c-21.845333 11.702857-41.935238 19.894857-60.269714 24.576v67.876572c38.229333-10.922667 70.022095-27.89181 95.378286-50.907429V731.428571h68.461714z" fill="black" p-id="92052"></path></svg>