<svg t="1719213637636" class="icon" viewBox="0 0 1024 1024" version="1.1" xmlns="http://www.w3.org/2000/svg" p-id="65071" width="200" height="200"><path d="M510.98 387.75m-325.26 0a325.26 325.26 0 1 0 650.52 0 325.26 325.26 0 1 0-650.52 0Z" fill="#00A854" p-id="65072"></path><path d="M511.79 848.47L280.23 617.02l231.56-400.96 230.05 400.86-230.05 231.55z" fill="#00A854" p-id="65073"></path><path d="M610.53 775.46l-7.95 8c68.27 10.21 115.19 31.45 115.19 56 0 34.51-92.76 62.48-207.19 62.48s-207.2-28-207.2-62.48c0-24.72 47.65-46.09 116.76-56.22l-7.92-7.91c-131.52 12.1-226.84 47.8-226.84 90 0 52.12 145.6 94.37 325.2 94.37s325.19-42.25 325.19-94.37c0-42.05-94.55-77.63-225.24-89.87z" fill="#00A854" p-id="65074"></path><path d="M407.53 422.66l-4.86 50.26 16.44 18.79V380.27H352.2v-40.64h57.2v-34.09h-51.22V264.9h51.22v-27.09h49.72v27.09h53.08v40.64h-53.08v34.09h58.69v40.64h-51.59v47.2h46v40.2h-46v45.89h214.59L667 554.2H424l-26.55-28-2.61 28H352.2l13.08-131.54z m174.21-24v43.26a13.25 13.25 0 0 0 3.18 9 9.72 9.72 0 0 0 7.66 3.71h83.74l-13.08 40.21h-95.71q-15 0-25.42-12.24t-10.47-29.72V358h82.62a10.82 10.82 0 0 0 8.6-3.94 14.27 14.27 0 0 0 3.36-9.61v-49.39h-94.58v-40.64h144.68v100.94q0 18.36-10.66 30.81t-26.35 12.46z" fill="#FFFFFF" p-id="65075"></path></svg>