<svg t="1720258014576" class="icon" viewBox="0 0 1040 1024" version="1.1" xmlns="http://www.w3.org/2000/svg" p-id="61063" width="200" height="200"><path d="M1008 668a8 8 0 0 1-8-8V92c0-17.648-14.352-32-32-32h-832c-17.648 0-32 14.352-32 32v568a8 8 0 0 1-16 0V92c0-26.464 21.536-48 48-48h832c26.464 0 48 21.536 48 48v568a8 8 0 0 1-8 8z" fill="#ffffff" p-id="61064"></path><path d="M552.112 772c-57.344 0-104-46.656-104-104s46.656-104 104-104 104 46.656 104 104-46.656 104-104 104z m0-192c-48.512 0-88 39.472-88 88s39.472 88 88 88 88-39.472 88-88-39.488-88-88-88z" fill="#ffffff" p-id="61065"></path><path d="M618.688 612.48l7.152-5.952a96 96 0 0 0-169.712 61.456h9.056a239.92 239.92 0 0 0 153.504-55.504z" fill="#FFD740" p-id="61066"></path><path d="M465.184 676h-9.056a8 8 0 0 1-8-8c0-57.344 46.656-104 104-104 30.912 0 60.016 13.632 79.856 37.408a8 8 0 0 1-1.024 11.264l-7.136 5.952h-0.016a248.432 248.432 0 0 1-158.624 57.376z m-0.704-16h0.704c54.096 0 106.8-19.056 148.4-53.664l0.704-0.592a87.76 87.76 0 0 0-62.176-25.744 88.096 88.096 0 0 0-87.632 80z m154.208-47.52h0.16-0.16zM552.048 859.472a8.016 8.016 0 0 1-6.64-3.536l-48.064-71.392a7.968 7.968 0 0 1-1.36-4.464l-0.016-29.12c0-2.864 1.536-5.52 4-6.944a8.048 8.048 0 0 1 8.016 0.016 88.848 88.848 0 0 0 87.968 0.176 8.032 8.032 0 0 1 12 6.928l0.032 28.768a7.968 7.968 0 0 1-1.36 4.464l-47.936 71.568a8 8 0 0 1-6.64 3.536z m-40.064-81.84l40.048 59.488 39.952-59.648-0.016-13.488a104.608 104.608 0 0 1-80-0.128l0.016 13.776z" fill="#ffffff" p-id="61067"></path><path d="M712.112 980a8 8 0 0 1-8-8v-86.56a71.616 71.616 0 0 0-39.792-64.4l-67.92-33.968a8 8 0 0 1 7.152-14.32l67.92 33.968a87.52 87.52 0 0 1 48.64 78.704v86.56a8 8 0 0 1-8 8.016zM392.032 980a8 8 0 0 1-8-8v-86.528a87.52 87.52 0 0 1 48.672-78.72l67.68-33.808a8.016 8.016 0 0 1 7.152 14.32l-67.68 33.808a71.6 71.6 0 0 0-39.824 64.416v86.528a8 8 0 0 1-8 7.984zM552.048 923.472a8 8 0 0 1-8-8v-64a8 8 0 0 1 16 0v64a8 8 0 0 1-8 8zM232.08 772c-57.344 0-104-46.656-104-104s46.656-104 104-104 104 46.656 104 104-46.656 104-104 104z m0-192c-48.528 0-88 39.472-88 88s39.472 88 88 88 88-39.472 88-88-39.472-88-88-88z" fill="#ffffff" p-id="61068"></path><path d="M298.64 612.48l7.152-5.952a96 96 0 0 0-169.712 61.456h9.056c56.08 0.016 110.4-19.632 153.504-55.504z" fill="#FFD740" p-id="61069"></path><path d="M145.136 676h-9.056a8 8 0 0 1-8-8c0-57.344 46.656-104 104-104 30.912 0 60 13.632 79.856 37.408a8 8 0 0 1-1.024 11.28l-7.152 5.952a248.448 248.448 0 0 1-158.624 57.36z m-0.704-16h0.704c54.096 0 106.8-19.056 148.384-53.664l0.72-0.608a87.776 87.776 0 0 0-62.16-25.744 88.16 88.16 0 0 0-87.648 80.016zM232 859.472a8 8 0 0 1-6.64-3.536l-48.048-71.392a8.096 8.096 0 0 1-1.36-4.464l-0.016-29.12a8 8 0 0 1 12.016-6.928 88.832 88.832 0 0 0 87.984 0.176 8.032 8.032 0 0 1 12 6.928l0.016 28.768a8.08 8.08 0 0 1-1.344 4.464l-47.952 71.568a8.032 8.032 0 0 1-6.656 3.536z m-40.048-81.84l40.032 59.488 39.968-59.648-0.016-13.488a104.672 104.672 0 0 1-80-0.128l0.016 13.776z" fill="#ffffff" p-id="61070"></path><path d="M392.08 980a8 8 0 0 1-8-8v-86.56a71.6 71.6 0 0 0-39.808-64.4l-67.92-33.968a8 8 0 0 1 7.152-14.32l67.92 33.968a87.552 87.552 0 0 1 48.656 78.704v86.56a8 8 0 0 1-8 8.016zM72 980a8 8 0 0 1-8-8v-86.528a87.52 87.52 0 0 1 48.672-78.72l67.696-33.808a8 8 0 0 1 7.152 14.32l-67.696 33.808A71.552 71.552 0 0 0 80 885.456v86.528a8 8 0 0 1-8 8.016zM232 923.472a8 8 0 0 1-8-8v-64a8 8 0 0 1 16 0v64a8 8 0 0 1-8 8zM872 772c-57.344 0-104-46.656-104-104s46.656-104 104-104 104 46.656 104 104-46.656 104-104 104z m0-192c-48.512 0-88 39.472-88 88s39.488 88 88 88 88-39.472 88-88-39.488-88-88-88z" fill="#ffffff" p-id="61071"></path><path d="M938.56 612.48l7.152-5.952A96 96 0 0 0 776 667.984h9.056c56.08 0.016 110.4-19.632 153.504-55.504z" fill="#FFD740" p-id="61072"></path><path d="M785.056 676H776a8 8 0 0 1-8-8c0-57.344 46.656-104 104-104 30.912 0 60.016 13.632 79.856 37.408a8 8 0 0 1-1.04 11.28l-7.152 5.952a248.4 248.4 0 0 1-158.608 57.36z m-0.704-16h0.704c54.096 0 106.8-19.056 148.384-53.664l0.72-0.608a87.792 87.792 0 0 0-62.176-25.744 88.144 88.144 0 0 0-87.632 80.016zM871.92 859.472a8.016 8.016 0 0 1-6.64-3.536l-48.064-71.392a7.968 7.968 0 0 1-1.36-4.464l-0.016-29.12a8.016 8.016 0 0 1 12.016-6.928 88.88 88.88 0 0 0 87.984 0.176 8.032 8.032 0 0 1 12 6.928l0.016 28.768c0 1.6-0.464 3.136-1.36 4.464l-47.936 71.568a8 8 0 0 1-6.64 3.536z m-40.064-81.84l40.048 59.488 39.952-59.648-0.016-13.472a104.752 104.752 0 0 1-80-0.128l0.016 13.76z" fill="#ffffff" p-id="61073"></path><path d="M1032 980a8 8 0 0 1-8-8v-86.56a71.632 71.632 0 0 0-39.792-64.4l-67.92-33.968a8 8 0 0 1 7.152-14.32l67.92 33.968A87.552 87.552 0 0 1 1040 885.44v86.56a8 8 0 0 1-8 8zM711.92 980a8 8 0 0 1-8-8v-86.528a87.52 87.52 0 0 1 48.672-78.72l67.68-33.808a8 8 0 0 1 7.152 14.32l-67.68 33.808a71.616 71.616 0 0 0-39.824 64.416v86.528a8 8 0 0 1-8 7.984zM871.92 923.472a8 8 0 0 1-8-8v-64a8 8 0 0 1 16 0v64a8 8 0 0 1-8 8z" fill="#ffffff" p-id="61074"></path><path d="M644 524v-344l-192 192v152z" fill="#FF5252" p-id="61075"></path><path d="M324 244l-168 168v112h296v-152z" fill="#40C4FF" p-id="61076"></path><path d="M156 420a8 8 0 0 1-5.664-13.648l168-168a8 8 0 0 1 11.312 0l122.336 122.336 186.336-186.336a8 8 0 0 1 11.312 11.312l-192 192a8 8 0 0 1-11.312 0l-122.336-122.336-162.32 162.32a8 8 0 0 1-5.664 2.352z" fill="#ffffff" p-id="61077"></path><path d="M644 252a8 8 0 0 1-8-8v-56h-56a8 8 0 0 1 0-16h64a8 8 0 0 1 8 8v64a8 8 0 0 1-8 8zM924 252h-192a8 8 0 0 1-8-8v-64a8 8 0 0 1 8-8h192a8 8 0 0 1 8 8v64a8 8 0 0 1-8 8z m-184-16h176v-48h-176v48z" fill="#ffffff" p-id="61078"></path><path d="M924 332h-192a8 8 0 0 1 0-16h192a8 8 0 0 1 0 16z" fill="#ffffff" p-id="61079"></path><path d="M924 396h-192a8 8 0 0 1 0-16h192a8 8 0 0 1 0 16z" fill="#ffffff" p-id="61080"></path><path d="M924 460h-192a8 8 0 0 1 0-16h192a8 8 0 0 1 0 16z" fill="#ffffff" p-id="61081"></path></svg>