<svg t="1720257502112" class="icon" viewBox="0 0 1024 1024" version="1.1" xmlns="http://www.w3.org/2000/svg" p-id="10220" width="200" height="200"><path d="M823.79 246.3H693.62c0 26.61-21.57 48.18-48.18 48.18s-48.18-21.57-48.18-48.18H175.19c-26.5 0-47.99 21.49-47.99 47.99v401.06c0 26.5 21.49 47.99 47.99 47.99h422.43c-0.09-1.22-0.36-2.38-0.36-3.62 0-26.61 21.57-48.18 48.18-48.18s48.18 21.57 48.18 48.18c0 1.24-0.27 2.4-0.36 3.62h130.53c26.5 0 47.99-21.49 47.99-47.99V294.29c0-26.51-21.49-47.99-47.99-47.99z" fill="#F2EFE7" p-id="10221"></path><path d="M823.79 246.3c26.5 0 47.99 21.49 47.99 47.99v401.06c0 26.5-21.49 47.99-47.99 47.99H693.25c0.09-1.22 0.36-2.38 0.36-3.62 0-26.61-21.57-48.18-48.18-48.18s-48.18 21.57-48.18 48.18c0 1.24 0.27 2.4 0.36 3.62H175.19c-26.5 0-47.99-21.49-47.99-47.99V294.29c0-26.5 21.49-47.99 47.99-47.99h422.07c0 26.61 21.57 48.18 48.18 48.18s48.18-21.57 48.18-48.18h130.17m0-25.35H693.62c-14 0-25.35 11.35-25.35 25.35 0 12.59-10.24 22.83-22.83 22.83-12.59 0-22.83-10.24-22.83-22.83 0-14-11.35-25.35-25.35-25.35H175.19c-40.44 0-73.34 32.9-73.34 73.34v401.06c0 40.44 32.9 73.34 73.34 73.34h422.43c7.06 0 13.79-2.94 18.59-8.11 4.8-5.17 7.22-12.11 6.69-19.15-0.07-0.86-0.16-1.72-0.28-2.56 0.45-12.19 10.52-21.97 22.82-21.97s22.37 9.78 22.82 21.98c-0.13 0.96-0.22 1.76-0.28 2.56a25.355 25.355 0 0 0 6.69 19.15 25.36 25.36 0 0 0 18.59 8.11h130.53c40.44 0 73.34-32.9 73.34-73.34V294.29c0-40.44-32.9-73.34-73.34-73.34z" fill="#480662" p-id="10222"></path><path d="M381 246.3H175.19c-26.5 0-47.99 21.49-47.99 47.99v401.06c0 26.5 21.49 47.99 47.99 47.99H381V246.3z" fill="#8BD32D" p-id="10223"></path><path d="M381 246.29v497.04H175.19c-26.5 0-47.99-21.49-47.99-47.99V294.29c0-26.5 21.49-47.99 47.99-47.99H381m0-18.44H175.19c-36.62 0-66.42 29.8-66.42 66.42v401.06c0 36.62 29.8 66.42 66.42 66.42H381c10.18 0 18.43-8.25 18.43-18.43V246.29c0-10.17-8.25-18.43-18.43-18.43z" fill="#480662" p-id="10224"></path><path d="M419.66 592.7h-48.71l21.33-150.41H441z" fill="#E5E3DF" p-id="10225"></path><path d="M441 442.29L419.66 592.7h-48.71l21.34-150.41H441m0-16.6h-48.71c-8.27 0-15.27 6.08-16.44 14.27l-21.34 150.41c-0.68 4.76 0.75 9.58 3.9 13.21 3.15 3.63 7.73 5.72 12.53 5.72h48.71c8.27 0 15.27-6.08 16.44-14.27l21.34-150.41c0.68-4.76-0.75-9.58-3.9-13.21a16.608 16.608 0 0 0-12.53-5.72z m0 33.2h0.05-0.05z" fill="#480662" p-id="10226"></path><path d="M369.31 592.7h-67.57l24.38-171.9h67.57z" fill="#F2EFE7" p-id="10227"></path><path d="M393.69 420.8l-24.38 171.9h-67.57l24.38-171.89h67.57m0-16.61h-67.57c-8.27 0-15.27 6.08-16.44 14.27L285.3 590.36c-0.68 4.76 0.75 9.58 3.9 13.21 3.15 3.63 7.73 5.72 12.53 5.72h67.57c8.27 0 15.27-6.08 16.44-14.27l24.38-171.89c0.68-4.76-0.75-9.58-3.9-13.21a16.592 16.592 0 0 0-12.53-5.72z m0 33.2h0.05-0.05z" fill="#480662" p-id="10228"></path><path d="M342.44 420.8v171.9h26.87l24.38-171.9z" fill="#E5E3DF" p-id="10229"></path><path d="M495.9 591.67H238.27l14.58-80.48h233.32z" fill="#7CCCF6" p-id="10230"></path><path d="M486.17 511.19l9.72 80.47H238.27l14.58-80.47h233.32m0-16.6H252.85c-8.03 0-14.9 5.74-16.33 13.64l-14.58 80.47c-0.88 4.84 0.44 9.82 3.59 13.6 3.15 3.78 7.82 5.96 12.74 5.96H495.9c4.75 0 9.27-2.03 12.42-5.59 3.15-3.55 4.63-8.29 4.06-13l-9.72-80.47c-1.01-8.34-8.09-14.61-16.49-14.61z" fill="#480662" p-id="10231"></path><path d="M342.44 591.67H495.9l-9.73-80.48H342.44z" fill="#47A1DF" p-id="10232"></path><path d="M562.87 688.83H143.75l48.03-141.45h345.55z" fill="#FF8681" p-id="10233"></path><path d="M537.33 547.38l25.54 141.45H143.75l48.03-141.45h345.55m0-16.6H191.78c-7.11 0-13.43 4.53-15.72 11.26L128.04 683.5a16.604 16.604 0 0 0 15.72 21.94h419.11c4.92 0 9.58-2.18 12.74-5.96 3.15-3.77 4.47-8.75 3.6-13.59l-25.54-141.45c-1.43-7.91-8.31-13.66-16.34-13.66z" fill="#480662" p-id="10234"></path><path d="M342.44 688.83h220.43l-25.54-141.45H342.44z" fill="#E66863" p-id="10235"></path><path d="M85.96 609.98h164.19l32.41 43.21h313.25l-47.52 92H174.54z" fill="#7CCCF6" p-id="10236"></path><path d="M250.15 609.98l32.41 43.21h313.25l-47.53 92H174.54L85.96 609.98h164.19m345.66 43.21h0.05m-345.71-59.81H85.96c-6.1 0-11.7 3.34-14.6 8.71-2.9 5.36-2.62 11.89 0.72 16.99l88.58 135.21a16.61 16.61 0 0 0 13.89 7.5H548.3c6.21 0 11.9-3.46 14.75-8.98l47.17-91.31c1.42-2.44 2.23-5.28 2.23-8.31 0-9.17-7.41-16.6-16.58-16.6H290.86l-27.43-36.57a16.586 16.586 0 0 0-13.28-6.64z" fill="#480662" p-id="10237"></path><path d="M342.44 745.19h205.85l47.52-92H342.44z" fill="#47A1DF" p-id="10238"></path><path d="M356.11 607.46h-76.07c-0.69 0-1.26-0.56-1.26-1.26v-21.25c0-0.69 0.56-1.26 1.26-1.26h76.07c0.69 0 1.26 0.56 1.26 1.26v21.25c-0.01 0.69-0.57 1.26-1.26 1.26z" fill="#FFF112" p-id="10239"></path><path d="M345.48 583.69c6.53 0 11.88 5.35 11.88 11.88 0 6.54-5.35 11.88-11.88 11.88h-54.82c-6.54 0-11.88-5.35-11.88-11.88 0-6.54 5.35-11.88 11.88-11.88h54.82m0-16.6h-54.82c-15.7 0-28.48 12.78-28.48 28.48 0 15.71 12.78 28.48 28.48 28.48h54.82c15.7 0 28.48-12.78 28.48-28.48 0-15.7-12.78-28.48-28.48-28.48z" fill="#480662" p-id="10240"></path><path d="M467.05 607.46h-76.07c-0.69 0-1.26-0.56-1.26-1.26v-21.25c0-0.69 0.56-1.26 1.26-1.26h76.07c0.69 0 1.26 0.56 1.26 1.26v21.25c0 0.69-0.57 1.26-1.26 1.26z" fill="#FFD60D" p-id="10241"></path><path d="M456.42 583.69c6.54 0 11.88 5.35 11.88 11.88 0 6.54-5.35 11.88-11.88 11.88H401.6c-6.54 0-11.88-5.35-11.88-11.88 0-6.54 5.35-11.88 11.88-11.88h54.82m0-16.6H401.6c-15.7 0-28.48 12.78-28.48 28.48 0 15.71 12.78 28.48 28.48 28.48h54.82c15.71 0 28.48-12.78 28.48-28.48 0.01-15.7-12.77-28.48-28.48-28.48z" fill="#480662" p-id="10242"></path><path d="M541.07 583.69h-31.89c-6.54 0-11.88 5.35-11.88 11.88 0 6.54 5.35 11.88 11.88 11.88h34.54l-2.65-23.76z" fill="#FFD60D" p-id="10243"></path><path d="M541.07 583.69l2.66 23.76h-34.54c-6.54 0-11.88-5.35-11.88-11.88 0-6.54 5.35-11.88 11.88-11.88h31.88m0-16.6h-31.89c-15.71 0-28.48 12.78-28.48 28.48 0 15.71 12.78 28.48 28.48 28.48h34.54c4.72 0 9.22-2.01 12.37-5.53 3.15-3.52 4.65-8.22 4.12-12.91l-2.66-23.76c-0.92-8.4-8.03-14.76-16.48-14.76z" fill="#480662" p-id="10244"></path><path d="M431.49 702.74m-19.04 0a19.04 19.04 0 1 0 38.08 0 19.04 19.04 0 1 0-38.08 0Z" fill="#8BD32D" p-id="10245"></path><path d="M431.49 683.7c10.51 0 19.04 8.52 19.04 19.04s-8.52 19.04-19.04 19.04c-10.51 0-19.04-8.52-19.04-19.04s8.53-19.04 19.04-19.04m0-16.6c-19.65 0-35.64 15.99-35.64 35.64s15.99 35.64 35.64 35.64 35.64-15.99 35.64-35.64-15.99-35.64-35.64-35.64z" fill="#480662" p-id="10246"></path><path d="M511.82 702.74m-19.04 0a19.04 19.04 0 1 0 38.08 0 19.04 19.04 0 1 0-38.08 0Z" fill="#8BD32D" p-id="10247"></path><path d="M511.82 683.7c10.51 0 19.04 8.52 19.04 19.04s-8.52 19.04-19.04 19.04c-10.51 0-19.04-8.52-19.04-19.04s8.53-19.04 19.04-19.04m0-16.6c-19.65 0-35.64 15.99-35.64 35.64s15.99 35.64 35.64 35.64 35.64-15.99 35.64-35.64-15.99-35.64-35.64-35.64z" fill="#480662" p-id="10248"></path><path d="M345.48 583.69h-3.04v23.76h3.04c6.54 0 11.88-5.35 11.88-11.88 0-6.53-5.34-11.88-11.88-11.88z" fill="#FFD60D" p-id="10249"></path><path d="M642.13 315.49v345.08" fill="#FFF112" p-id="10250"></path><path d="M642.13 343.13c-5.09 0-9.21-4.13-9.21-9.22v-18.43c0-5.09 4.12-9.22 9.21-9.22s9.21 4.13 9.21 9.22v18.43c0 5.09-4.12 9.22-9.21 9.22zM642.13 617.11c-5.09 0-9.21-4.13-9.21-9.22v-34.26c0-5.09 4.12-9.22 9.21-9.22s9.21 4.13 9.21 9.22v34.26c0 5.09-4.12 9.22-9.21 9.22z m0-68.5c-5.09 0-9.21-4.13-9.21-9.22v-34.25c0-5.09 4.12-9.22 9.21-9.22s9.21 4.13 9.21 9.22v34.25c0 5.09-4.12 9.22-9.21 9.22z m0-68.49c-5.09 0-9.21-4.13-9.21-9.22v-34.25c0-5.09 4.12-9.22 9.21-9.22s9.21 4.13 9.21 9.22v34.25c0 5.08-4.12 9.22-9.21 9.22z m0-68.5c-5.09 0-9.21-4.13-9.21-9.22v-34.25c0-5.09 4.12-9.22 9.21-9.22s9.21 4.13 9.21 9.22v34.25c0 5.09-4.12 9.22-9.21 9.22zM642.13 669.78c-5.09 0-9.21-4.13-9.21-9.22v-18.43c0-5.09 4.12-9.22 9.21-9.22s9.21 4.13 9.21 9.22v18.43c0 5.09-4.12 9.22-9.21 9.22z" fill="#480662" p-id="10251"></path><path d="M478.17 283.33h93.2" fill="#8BD32D" p-id="10252"></path><path d="M571.37 292.55h-93.2c-5.09 0-9.21-4.13-9.21-9.22s4.12-9.22 9.21-9.22h93.2c5.09 0 9.21 4.13 9.21 9.22s-4.12 9.22-9.21 9.22z" fill="#480662" p-id="10253"></path><path d="M478.17 329.41h93.2" fill="#8BD32D" p-id="10254"></path><path d="M571.37 338.63h-93.2c-5.09 0-9.21-4.13-9.21-9.22 0-5.09 4.12-9.22 9.21-9.22h93.2c5.09 0 9.21 4.13 9.21 9.22 0 5.09-4.12 9.22-9.21 9.22z" fill="#480662" p-id="10255"></path><path d="M710.26 652.06h122.06" fill="#8BD32D" p-id="10256"></path><path d="M724.47 659.16h-14.2c-3.92 0-7.1-3.18-7.1-7.1 0-3.92 3.18-7.1 7.1-7.1h14.2c3.92 0 7.1 3.18 7.1 7.1 0 3.92-3.18 7.1-7.1 7.1zM786.9 659.16h-31.22c-3.92 0-7.1-3.18-7.1-7.1 0-3.92 3.18-7.1 7.1-7.1h31.22c3.92 0 7.1 3.18 7.1 7.1 0 3.92-3.18 7.1-7.1 7.1zM832.32 659.16h-14.2c-3.92 0-7.1-3.18-7.1-7.1 0-3.92 3.18-7.1 7.1-7.1h14.2c3.92 0 7.1 3.18 7.1 7.1 0 3.92-3.18 7.1-7.1 7.1z" fill="#480662" p-id="10257"></path><path d="M710.26 596.76h122.06" fill="#8BD32D" p-id="10258"></path><path d="M724.47 603.87h-14.2c-3.92 0-7.1-3.18-7.1-7.1 0-3.92 3.18-7.1 7.1-7.1h14.2c3.92 0 7.1 3.18 7.1 7.1 0 3.92-3.18 7.1-7.1 7.1zM786.9 603.87h-31.22c-3.92 0-7.1-3.18-7.1-7.1 0-3.92 3.18-7.1 7.1-7.1h31.22c3.92 0 7.1 3.18 7.1 7.1 0 3.92-3.18 7.1-7.1 7.1zM832.32 603.87h-14.2c-3.92 0-7.1-3.18-7.1-7.1 0-3.92 3.18-7.1 7.1-7.1h14.2c3.92 0 7.1 3.18 7.1 7.1 0 3.92-3.18 7.1-7.1 7.1z" fill="#480662" p-id="10259"></path><path d="M710.26 706.37h122.06" fill="#8BD32D" p-id="10260"></path><path d="M724.47 713.47h-14.2c-3.92 0-7.1-3.18-7.1-7.1 0-3.92 3.18-7.1 7.1-7.1h14.2c3.92 0 7.1 3.18 7.1 7.1 0 3.92-3.18 7.1-7.1 7.1zM786.9 713.47h-31.22c-3.92 0-7.1-3.18-7.1-7.1 0-3.92 3.18-7.1 7.1-7.1h31.22c3.92 0 7.1 3.18 7.1 7.1 0 3.92-3.18 7.1-7.1 7.1zM832.32 713.47h-14.2c-3.92 0-7.1-3.18-7.1-7.1 0-3.92 3.18-7.1 7.1-7.1h14.2c3.92 0 7.1 3.18 7.1 7.1 0 3.92-3.18 7.1-7.1 7.1z" fill="#480662" p-id="10261"></path><path d="M692.71 329.41h23.53v57.45h-23.53z" fill="#8BD32D" p-id="10262"></path><path d="M716.24 393.95h-23.53c-3.92 0-7.1-3.18-7.1-7.1v-57.44c0-3.92 3.18-7.1 7.1-7.1h23.53c3.92 0 7.1 3.18 7.1 7.1v57.44c0 3.92-3.18 7.1-7.1 7.1z m-16.42-14.2h9.32v-43.24h-9.32v43.24z" fill="#480662" p-id="10263"></path><path d="M753.89 329.41h23.53v57.45h-23.53z" fill="#8BD32D" p-id="10264"></path><path d="M777.42 393.95h-23.53c-3.92 0-7.1-3.18-7.1-7.1v-57.44c0-3.92 3.18-7.1 7.1-7.1h23.53c3.92 0 7.1 3.18 7.1 7.1v57.44c0 3.92-3.18 7.1-7.1 7.1z m-16.43-14.2h9.32v-43.24h-9.32v43.24z" fill="#480662" p-id="10265"></path><path d="M815.06 329.41h23.53v57.45h-23.53z" fill="#8BD32D" p-id="10266"></path><path d="M838.59 393.95h-23.53c-3.92 0-7.1-3.18-7.1-7.1v-57.44c0-3.92 3.18-7.1 7.1-7.1h23.53c3.92 0 7.1 3.18 7.1 7.1v57.44c0 3.92-3.18 7.1-7.1 7.1z m-16.42-14.2h9.32v-43.24h-9.32v43.24z" fill="#480662" p-id="10267"></path></svg>