<svg t="1720257818431" class="icon" viewBox="0 0 1024 1024" version="1.1" xmlns="http://www.w3.org/2000/svg" p-id="42856" width="200" height="200"><path d="M158.952338 375.460704h37.54607v136.532256H158.952338c-16.964032 0-30.720058-13.756026-30.720058-30.720058V406.180762c0-16.964032 13.756026-30.720058 30.720058-30.720058z" fill="#CF4737" p-id="42857"></path><path d="M486.626952 221.862416H418.362824c-37.700071 0-68.266128 30.566057-68.266128 68.266128v307.194576h204.796384V290.128544c0-37.700071-30.566057-68.266128-68.266128-68.266128z" fill="#3E8CC7" p-id="42858"></path><path d="M537.827048 51.200096l-134.380252 17.066032a68.570129 68.570129 0 0 0-2.150004 17.066032v68.266128c0 37.700071 30.566057 68.266128 68.266128 68.266128s68.266128-30.566057 68.266128-68.266128V85.33216a278.040521 278.040521 0 0 0-0.002-34.132064z" fill="#FEC9A3" p-id="42859"></path><path d="M401.294792 68.266128v68.266128l68.266128-68.266128h51.200096c28.278053 0 51.200096-22.920043 51.200096-51.200096h-119.464224c-28.282053 0-51.202096 22.920043-51.202096 51.200096M554.89308 597.32512H350.096696v170.66432l-153.598288 68.266128 34.132064 68.266128 162.780306-67.822127a68.274128 68.274128 0 0 0 42.018078-63.026118v-75.774142c0-17.834033 14.456027-32.306061 32.306061-32.306061a32.306061 32.306061 0 0 1 28.160053 16.470031l144.33027 256.594481 68.266128-34.132064-153.598288-307.200576z" fill="#75462E" p-id="42860"></path><path d="M187.060391 988.043853l-58.828111-117.656221 68.266128-34.132064 60.636114 121.274227a34.156064 34.156064 0 0 1 0 30.514058 34.144064 34.144064 0 0 1-30.532057 18.876035h-9.012017a34.112064 34.112064 0 0 1-30.530057-18.876035zM776.757496 955.719792l-102.398192 51.200096-34.132064-68.266128 102.398192-51.200096c18.858035-9.420018 41.778078-1.792003 51.200096 17.066032 9.418018 18.858035 1.772003 41.778078-17.068032 51.200096z" fill="#3E8CC7" p-id="42861"></path><path d="M788.907519 329.092617c-13.994026-18.654035-40.482076-22.442042-59.136111-8.448016a40.938077 40.938077 0 0 0-4.522008 3.926008l-85.02416 85.024159-85.33216-102.398192v136.532256l7.458014 11.178021c27.546052 41.284077 83.336156 52.444098 124.636234 24.900047a89.310167 89.310167 0 0 0 13.704026-11.246021l84.290158-84.290158c14.848028-14.868028 16.522031-38.368072 3.926007-55.178104z" fill="#FEC9A3" p-id="42862"></path><path d="M408.992807 204.796384h-127.162239v34.132064h127.162239c24.678046 0.018 44.662084 20.036038 44.646084 44.714084 0 6.742013-1.536003 13.398025-4.472009 19.456036l-107.262201 220.840414-43.008081 5.12001v34.132064l48.640092-7.014013a34.124064 34.124064 0 0 0 25.822048-18.876036l106.4422-219.268411c19.012036-39.150073 2.680005-86.304162-36.470069-105.316197a78.754148 78.754148 0 0 0-34.338064-7.920015z" fill="#75462E" p-id="42863"></path><path d="M196.498408 529.058992c0 28.280053 22.920043 51.200096 51.200096 51.200096h51.200096c28.278053 0 51.200096-22.920043 51.200096-51.200096v-17.066032h-153.600288v17.066032z" fill="#75462E" p-id="42864"></path><path d="M347.194691 255.99648a51.194096 51.194096 0 0 0-48.298091-34.132064h-51.200096c-28.278053 0-51.200096 22.920043-51.200096 51.200096v238.930448h153.598288V273.062512l-2.900005-17.066032z" fill="#DE4C3C" p-id="42865"></path><path d="M912.825752 1003.075881l-33.244063 7.732014-170.66032-733.881376 33.244063-7.732014z" fill="#75462E" p-id="42866"></path><path d="M273.296552 68.266128c-42.41008 0-76.798144 34.388064-76.798144 76.798144s34.388064 76.798144 76.798144 76.798144 76.798144-34.388064 76.798144-76.798144-34.388064-76.798144-76.798144-76.798144z m0 102.398192c-14.130026 0-25.600048-11.468022-25.600048-25.600048s11.468022-25.600048 25.600048-25.600048c14.130026 0 25.600048 11.468022 25.600048 25.600048s-11.468022 25.600048-25.600048 25.600048z" fill="#3E8CC7" p-id="42867"></path><path d="M466.148914 299.908562l-98.986186 60.346113 116.052218 83.472157c19.592037 13.106025 24.848047 39.594074 11.742022 59.186111-0.410001 0.614001-0.836002 1.212002-1.280002 1.810003-13.584025 18.074034-38.894073 22.408042-57.718109 9.898019l-142.862267-101.28819a63.78612 63.78612 0 0 1-28.330054-53.0761 63.76212 63.76212 0 0 1 28.398054-53.060099l125.796236-78.182147c18.824035-12.510023 44.134083-8.174015 57.718108 9.898019 14.080026 18.892035 10.188019 45.618086-8.704017 59.716112-0.598001 0.444001-1.212002 0.870002-1.826003 1.280002z" fill="#FEC9A3" p-id="42868"></path><path d="M273.296552 170.66432c14.130026 0 25.600048-11.468022 25.600048-25.600048s-11.468022-25.600048-25.600048-25.600048c-14.130026 0-25.600048 11.468022-25.600048 25.600048s11.452021 25.600048 25.600048 25.600048z m0-34.132064a8.536016 8.536016 0 0 1 8.534016 8.534016 8.536016 8.536016 0 1 1-8.534016-8.534016z" p-id="42869"></path><path d="M637.119235 511.99296a106.328199 106.328199 0 0 0 75.638141-31.316059l35.328067-35.344066 131.514246 565.46106 33.246063-7.748014-136.310256-586.165099 20.480038-20.480039c23.160043-23.160043 23.160043-60.722114-0.018-83.864157a59.366111 59.366111 0 0 0-37.70007-17.220032 59.168111 59.168111 0 0 0-10.990021 0.41l-6.160011-26.504049-33.246063 7.748014 7.628014 32.836062c-1.092002 0.956002-2.338004 1.706003-3.414006 2.730005l-71.816135 71.816135-69.34013-83.336157v-10.88802a85.06816 85.06816 0 0 0-44.372083-74.376139 84.806159 84.806159 0 0 0 27.306051-62.156117V85.33216a87.046163 87.046163 0 0 0-0.580001-9.182017 68.056128 68.056128 0 0 0 34.714065-59.084111A17.072032 17.072032 0 0 0 571.961112 0h-119.464224c-37.700071 0-68.266128 30.566057-68.266128 68.266128v85.33216a84.460158 84.460158 0 0 0 17.510033 51.200096H345.642688c33.058062-39.918075 27.494052-99.104186-12.424023-132.162248s-99.104186-27.494052-132.162248 12.424023c-32.392061 39.100073-27.802052 96.868182 10.342019 130.388245a68.054128 68.054128 0 0 0-31.96606 57.616108v85.33216h-20.480038c-26.384049 0-47.78609 21.40204-47.78609 47.78609v75.09214c0 26.384049 21.40204 47.78609 47.78609 47.78609h20.480038c0 37.700071 30.566057 68.266128 68.266128 68.266128h51.200096a67.500127 67.500127 0 0 0 34.132064-9.472018v169.042317l-143.460269 63.76012c-0.12 0-0.188 0.17-0.308 0.222-0.12 0.052-0.274001 0-0.392001 0.102l-68.266128 34.132064c-8.430016 4.216008-11.862022 14.456027-7.646014 22.886043v0.018L171.802362 995.689867a50.908095 50.908095 0 0 0 45.790086 28.296053h9.012017c28.278053 0 51.200096-22.920043 51.200096-51.200096 0-7.952015-1.860003-15.78603-5.41001-22.904043l-18.312035-36.642069 145.900274-60.790114a85.13216 85.13216 0 0 0 52.514098-78.778147v-75.774142a15.244029 15.244029 0 0 1 15.240029-15.240029 15.266029 15.266029 0 0 1 13.278025 7.766015l144.10827 256.20048 33.962064 67.924127c4.216008 8.430016 14.456027 11.862022 22.886043 7.646015h0.018l102.398192-51.200096c27.290051-13.636026 38.348072-46.814088 24.712046-74.102139s-46.814088-38.348072-74.102139-24.712047l-18.876035 9.438018-144.160271-288.320541v-103.662194a106.4642 106.4642 0 0 0 65.158123 22.358042z m119.790224-182.610342a24.874047 24.874047 0 0 1 18.346035 10.018018 25.260047 25.260047 0 0 1-2.338005 32.904062l-5.49601 5.49601-11.246021-48.41809h0.734001z m-129.790243 91.13417a17.076032 17.076032 0 0 0 12.338023 6.126012 17.398033 17.398033 0 0 0 12.834024-4.984009l73.266137-73.266138 13.432026 57.770109-50.380095 50.362094c-28.416053 28.432053-74.51214 28.450053-102.944193 0.034a72.156135 72.156135 0 0 1-9.114017-11.128021l-4.590009-6.826013v-84.274158l55.158104 66.186124z m-328.222616-181.58634a34.126064 34.126064 0 0 1 31.69206 21.50404l0.512001 3.072006-47.462089 29.490055c-37.15407 24.780046-47.172088 74.990141-22.392042 112.144211a80.678151 80.678151 0 0 0 21.982041 22.118041l49.800093 35.242066v32.426061h-119.464224V273.062512c0-18.858035 15.274029-34.132064 34.132064-34.132064h51.200096z m3.686007 160.2023c-21.47004-14.318027-27.272051-43.332081-12.954024-64.802121a46.570087 46.570087 0 0 1 12.492023-12.646024l126.292237-78.506147c12.236023-7.082013 27.904052-2.884005 34.970066 9.352017 6.382012 11.042021 3.652007 25.104047-6.382012 32.972062l-98.712185 60.176113c-8.056015 4.898009-10.59802 15.410029-5.684011 23.450044a17.344033 17.344033 0 0 0 4.608009 4.984009l116.614218 83.812158c11.280021 8.534016 13.500025 24.592046 4.96601 35.856067-7.696014 10.172019-21.726041 13.124025-32.886062 6.912013l-143.324269-101.560191z m95.402179-37.70007l27.204051-16.520031-14.234026 25.788048-12.970025-9.268017z m-37.102069-116.444219c-0.938002-2.066004-1.894004-4.114008-3.020006-6.058011h12.782024l-9.762018 6.058011z m6.280011 305.164573l23.416044-46.848088 35.976068 25.514048c28.108053 17.254032 64.904122 8.464016 82.158154-19.644037 16.23003-26.45205 9.524018-60.926114-15.462029-79.342149l-54.408102-39.014073 47.086088-85.33216h-0.12a58.960111 58.960111 0 0 0 11.076021-65.450123c23.790045 4.898009 40.874077 25.804048 40.942076 50.090094v290.128544H367.162728v-30.102056z m153.598288-396.554744c0 28.278053-22.920043 51.200096-51.200096 51.200096-28.278053 0-51.200096-22.920043-51.200096-51.200096v-10.000019l58.26411-58.264109h44.134082v68.264128z m-68.266128-119.466224h97.808184a34.134064 34.134064 0 0 1-29.542056 17.066032h-51.200096a17.026032 17.026032 0 0 0-12.066022 5.000009L418.362824 95.332179v-10.000019c0-4.318008 0.546001-8.636016 1.622003-12.816024l-1.622003-0.426001v-3.822007c0-18.860035 15.274029-34.136064 34.132064-34.136064z m-179.198336 51.200096c32.990062 0 59.732112 26.74405 59.732112 59.732112s-26.74405 59.732112-59.732112 59.732112-59.732112-26.74405-59.732112-59.732112 26.74405-59.732112 59.732112-59.732112zM158.952338 494.926928a13.650026 13.650026 0 0 1-13.654026-13.654026V406.180762a13.650026 13.650026 0 0 1 13.654026-13.654026h20.480038v102.398192l-20.480038 0.002z m139.944262 68.264128h-51.200096c-18.858035 0-34.132064-15.274029-34.132064-34.132064h119.464224c0.002 18.858035-15.290029 34.132064-34.132064 34.132064z m-57.086107 417.274782a16.966032 16.966032 0 0 1-15.258028 9.438018h-9.012017a16.960032 16.960032 0 0 1-15.258029-9.438018l-51.200096-102.398192 37.734071-18.858035 26.48805 52.992099 26.504049 52.9061a17.192032 17.192032 0 0 1 0.052 15.308028l-0.05 0.05z m508.442954-77.652145c10.41002-5.20601 23.074043-0.990002 28.296053 9.420017 5.20601 10.41002 0.990002 23.074043-9.420018 28.296053l-87.140163 43.570082-18.858036-37.734071 52.9921-26.488049 34.130064-17.064032z m-103.116194 13.396025l-136.360255-242.342454c-13.362025-23.774045-43.450081-32.20406-67.224126-18.858036a49.384093 49.384093 0 0 0-25.190048 42.888081v75.774142a51.106096 51.106096 0 0 1-31.504059 47.274088l-148.084277 61.696116-19.030036-38.040071 137.282257-61.012115a17.072032 17.072032 0 0 0 10.138019-15.598029v-153.598288h177.184333l141.242264 282.50053-38.454072 19.316036z" p-id="42870"></path></svg>