<svg t="1720919140732" class="icon" viewBox="0 0 1024 1024" version="1.1" xmlns="http://www.w3.org/2000/svg" p-id="14701" width="200" height="200"><path d="M640 688c0 21.648 5.76 41.056 14.672 53.808 3.232 4.624 6.464 7.728 9.152 9.36 1.184 0.704 1.6 0.832 1.776 0.832h268.8c0.176 0 0.592-0.128 1.776-0.832 2.688-1.632 5.92-4.736 9.152-9.36 8.928-12.752 14.672-32.16 14.672-53.808V336c0-21.648-5.76-41.056-14.672-53.808-3.232-4.624-6.464-7.728-9.152-9.36-1.184-0.704-1.6-0.832-1.776-0.832H665.6c-0.176 0-0.592 0.128-1.776 0.832-2.688 1.632-5.92 4.736-9.152 9.36C645.76 294.944 640 314.352 640 336v32h-64v-32a64 64 0 0 0-64-64H128a64 64 0 0 0-64 64v352a64 64 0 0 0 64 64h384a64 64 0 0 0 64-64h64z m-37.648 90.672A127.6 127.6 0 0 1 512 816H128a128 128 0 0 1-128-128V336a128 128 0 0 1 128-128h384c35.264 0 67.2 14.256 90.352 37.328C618.56 222.256 640.912 208 665.6 208h268.8c49.488 0 89.6 57.312 89.6 128v352c0 70.688-40.112 128-89.6 128H665.6c-24.688 0-47.04-14.256-63.248-37.328zM704 352h192v192H704V352z m64 64v64h64v-64h-64z m-32 240a32 32 0 0 1 0-64h128a32 32 0 0 1 0 64h-128zM576 400h64v64h-64v-64z m0 96h64v64h-64v-64z m0 96h64v64h-64v-64zM164.224 344.96c25.344 20.352 47.232 40.32 64.896 60.288l-26.496 26.112c-14.976-19.2-36.096-39.936-63.744-62.208l25.344-24.192z m218.112 344.064c-20.736 0-43.392-0.384-67.968-0.768s-44.928-2.688-60.672-6.528c-15.36-4.608-28.416-13.824-39.936-26.88-5.376-6.528-9.984-9.6-14.208-9.6-8.064 0-21.888 17.28-41.472 51.84l-26.88-24.96c19.2-31.104 36.48-50.688 51.84-58.368v-108.672H131.584v-33.792h85.632v145.536c1.536 1.536 3.456 3.072 5.376 5.376 8.832 10.368 18.048 18.048 27.264 23.04 11.52 5.376 28.416 8.832 50.688 9.6 21.504 0.384 46.848 0.768 76.8 0.768 19.2 0 38.4-0.384 58.368-0.768a905.104 905.104 0 0 0 45.696-1.92l-9.216 36.096h-89.856zM345.088 512c19.968 11.136 38.4 22.656 55.68 34.56 12.288-11.52 23.424-23.04 32.64-34.56l26.112 19.968a391.904 391.904 0 0 1-32.256 33.792 468.896 468.896 0 0 1 48.384 41.088l-22.272 26.88c-33.792-34.56-76.416-66.816-128.64-96.768L345.088 512z m-48-8.832v91.008a691.04 691.04 0 0 0 67.584-16.128l8.064 32.64c-30.72 8.064-69.12 16.128-115.968 23.808l-7.68-30.72c8.448-3.072 12.672-8.064 12.672-14.208V354.176h188.928v148.992h-153.6z m0-59.52v27.264h117.888v-27.264h-117.888z m117.888-29.952v-27.264h-117.888v27.264h117.888z" fill="#ed8888" p-id="14702"></path></svg>