<svg t="1719215122213" class="icon" viewBox="0 0 1024 1024" version="1.1" xmlns="http://www.w3.org/2000/svg" p-id="94326" width="200" height="200"><path d="M101.4784 752.7424V298.7008a48.128 48.128 0 0 1 24.2176-41.7792L497.7152 43.7248a48.128 48.128 0 0 1 47.7696 0l373.8624 213.1968a48.128 48.128 0 0 1 24.32 41.8304V752.64a48.128 48.128 0 0 1-24.32 41.8816l-373.8624 213.248a48.128 48.128 0 0 1-47.7696-0.0512L125.696 794.5216a48.128 48.128 0 0 1-24.1664-41.7792H101.4784z" fill="#81B1CA" p-id="94327"></path><path d="M736 152.5248L309.2992 900.1984 125.6448 794.5216a48.128 48.128 0 0 1-24.1152-41.728v-454.144c0-17.2544 9.216-33.1776 24.1664-41.7792L497.664 43.6736a48.128 48.128 0 0 1 47.8208 0l190.5152 108.8512z" fill="#B0DFF7" p-id="94328"></path><path d="M670.1056 716.8v-63.2832H453.8368c9.8304-22.1184 37.0688-47.9232 81.7152-77.4144 44.6464-29.9008 74.9568-53.4528 90.9312-70.656 28.672-31.9488 43.008-66.56 43.008-103.8336 0-38.912-13.5168-70.656-40.5504-95.232-27.4432-24.576-62.464-36.864-105.0624-36.864-47.104 0-85.1968 15.9744-114.2784 47.9232-27.8528 29.9008-42.1888 69.4272-43.008 118.5792h71.8848c1.2288-34.816 8.6016-60.8256 22.1184-78.0288 13.5168-18.432 33.792-27.648 60.8256-27.648 25.3952 0 44.4416 5.7344 57.1392 17.2032 12.6976 11.8784 19.0464 29.696 19.0464 53.4528 0 24.576-9.6256 47.7184-28.8768 69.4272-13.5168 14.336-33.5872 30.72-60.2112 49.152-51.2 35.2256-84.7872 62.0544-100.7616 80.4864-29.0816 32.768-43.6224 71.68-43.6224 116.736h305.9712z" fill="black" p-id="94329"></path></svg>