<svg t="1720186161317" class="icon" viewBox="0 0 1024 1024" version="1.1" xmlns="http://www.w3.org/2000/svg" p-id="9134" width="200" height="200"><path d="M512 955.733333c-56.32 0-102.4-46.08-102.4-102.4v-15.36c-47.786667-15.36-92.16-39.253333-128-73.386666l-13.653333 6.826666c-23.893333 13.653333-51.2 17.066667-78.506667 10.24-27.306667-6.826667-49.493333-23.893333-63.146667-47.786666-13.653333-23.893333-17.066667-51.2-10.24-78.506667 6.826667-27.306667 23.893333-49.493333 47.786667-63.146667l13.653333-6.826666c-3.413333-23.893333-6.826667-49.493333-6.826666-73.386667s3.413333-47.786667 8.533333-71.68l-13.653333-6.826667c-23.893333-13.653333-40.96-35.84-47.786667-63.146666-6.826667-27.306667-3.413333-54.613333 10.24-78.506667 13.653333-23.893333 35.84-40.96 63.146667-47.786667 27.306667-6.826667 54.613333-3.413333 78.506666 10.24l13.653334 6.826667c37.546667-34.133333 80.213333-59.733333 128-73.386667v-17.066666c0-56.32 46.08-102.4 102.4-102.4s102.4 46.08 102.4 102.4v15.36c47.786667 15.36 92.16 39.253333 128 73.386666l13.653333-6.826666c23.893333-13.653333 51.2-17.066667 78.506667-10.24 27.306667 6.826667 49.493333 23.893333 63.146666 47.786666 13.653333 23.893333 17.066667 51.2 10.24 78.506667-6.826667 27.306667-23.893333 49.493333-47.786666 63.146667l-13.653334 6.826666c5.12 25.6 8.533333 49.493333 8.533334 73.386667s-3.413333 49.493333-8.533334 73.386667l13.653334 6.826666c23.893333 13.653333 40.96 37.546667 47.786666 64.853334 6.826667 25.6 3.413333 52.906667-10.24 75.093333-27.306667 47.786667-90.453333 64.853333-139.946666 37.546667l-13.653334-6.826667c-37.546667 34.133333-80.213333 59.733333-128 73.386667v17.066666c-3.413333 56.32-49.493333 102.4-105.813333 102.4zM286.72 687.786667c8.533333 0 18.773333 3.413333 25.6 10.24 37.546667 39.253333 87.04 68.266667 139.946667 80.213333 15.36 3.413333 27.306667 17.066667 27.306666 34.133333V853.333333c0 18.773333 15.36 34.133333 34.133334 34.133334s34.133333-15.36 34.133333-34.133334v-42.666666c0-15.36 11.946667-29.013333 27.306667-34.133334 52.906667-11.946667 102.4-40.96 139.946666-80.213333 10.24-11.946667 29.013333-13.653333 42.666667-6.826667l35.84 20.48c15.36 8.533333 37.546667 3.413333 47.786667-13.653333 5.12-6.826667 5.12-15.36 3.413333-23.893333-1.706667-8.533333-8.533333-17.066667-17.066667-22.186667L788.48 631.466667c-13.653333-8.533333-20.48-23.893333-15.36-39.253334 8.533333-27.306667 11.946667-54.613333 11.946667-80.213333s-3.413333-52.906667-11.946667-80.213333c-5.12-15.36 1.706667-30.72 15.36-39.253334l35.84-20.48c8.533333-5.12 13.653333-11.946667 15.36-20.48 1.706667-8.533333 1.706667-18.773333-3.413333-25.6-5.12-8.533333-11.946667-13.653333-20.48-15.36-8.533333-1.706667-18.773333-1.706667-25.6 3.413334l-35.84 20.48c-13.653333 8.533333-30.72 5.12-42.666667-6.826667-37.546667-39.253333-87.04-68.266667-139.946667-80.213333-15.36-3.413333-27.306667-17.066667-27.306666-34.133334V170.666667c0-18.773333-15.36-34.133333-34.133334-34.133334s-34.133333 15.36-34.133333 34.133334v42.666666c0 15.36-11.946667 29.013333-27.306667 34.133334-52.906667 11.946667-102.4 40.96-139.946666 80.213333-10.24 11.946667-29.013333 13.653333-42.666667 6.826667l-35.84-20.48c-8.533333-5.12-17.066667-5.12-25.6-3.413334-8.533333 1.706667-17.066667 8.533333-20.48 15.36-5.12 6.826667-5.12 17.066667-3.413333 25.6 1.706667 8.533333 8.533333 17.066667 15.36 20.48l35.84 20.48c13.653333 8.533333 20.48 23.893333 15.36 39.253334-5.12 27.306667-8.533333 54.613333-8.533334 80.213333s3.413333 52.906667 11.946667 80.213333c5.12 15.36-1.706667 30.72-15.36 39.253334l-35.84 20.48c-8.533333 5.12-13.653333 11.946667-15.36 20.48-1.706667 8.533333-1.706667 18.773333 3.413333 25.6 5.12 8.533333 11.946667 13.653333 20.48 15.36 8.533333 1.706667 18.773333 1.706667 25.6-3.413334l35.84-20.48c5.12 0 11.946667-1.706667 17.066667-1.706666z" fill="#3793DF" p-id="9135"></path><path d="M512 733.866667c-122.88 0-221.866667-98.986667-221.866667-221.866667s98.986667-221.866667 221.866667-221.866667 221.866667 98.986667 221.866667 221.866667-98.986667 221.866667-221.866667 221.866667z m0-375.466667c-85.333333 0-153.6 68.266667-153.6 153.6s68.266667 153.6 153.6 153.6 153.6-68.266667 153.6-153.6-68.266667-153.6-153.6-153.6z" fill="#EB4AF4" p-id="9136"></path><path d="M512 614.4c-56.32 0-102.4-46.08-102.4-102.4s46.08-102.4 102.4-102.4 102.4 46.08 102.4 102.4-46.08 102.4-102.4 102.4z m0-136.533333c-18.773333 0-34.133333 15.36-34.133333 34.133333s15.36 34.133333 34.133333 34.133333 34.133333-15.36 34.133333-34.133333-15.36-34.133333-34.133333-34.133333z" fill="#3793DF" p-id="9137"></path></svg>