<svg t="1719211218232" class="icon" viewBox="0 0 1024 1024" version="1.1" xmlns="http://www.w3.org/2000/svg" p-id="49786" width="200" height="200"><path d="M0 512a512 512 0 1 0 1024 0A512 512 0 0 0 0 512z" fill="#000000" p-id="49787"></path><path d="M42.048 512a469.952 469.952 0 1 0 939.904 0A469.952 469.952 0 0 0 42.048 512z" fill="#FFFFFF" p-id="49788"></path><path d="M82.24 514.88a429.76 429.76 0 1 0 859.52 0 429.76 429.76 0 0 0-859.52 0z" fill="#16398C" p-id="49789"></path><path d="M865.92 416.512l-71.36 71.36 14.912 11.968c8.96 5.952 0 14.912 0 26.752 0 47.616-89.28 190.464-252.928 199.424V490.88h139.904V410.56H553.408v-20.928c38.72-17.92 68.416-53.568 68.416-92.288 0-59.52-50.56-98.24-104.192-98.24-59.584-2.944-104.256 41.664-104.256 95.296 0 41.6 23.744 71.36 56.576 92.288v23.68H330.24v80.384h142.912v235.2c-142.912-8.96-247.04-151.872-249.984-199.488 0-8.96 0-17.92 8.96-26.752l17.92-11.968L169.6 416.384c-6.016 312.512 241.088 386.88 303.552 404.8l44.608 50.56 38.72-44.608c86.144-17.792 312.384-98.112 309.376-410.624zM511.744 249.856c20.928 0 41.664 17.92 41.664 38.656 0 20.928-17.92 41.664-41.6 41.664-23.808 3.008-41.728-11.904-41.728-35.648 0-23.936 20.8-44.672 41.664-44.672z" fill="#FFFFFF" p-id="49790"></path></svg>