<svg t="1719211416883" class="icon" viewBox="0 0 1024 1024" version="1.1" xmlns="http://www.w3.org/2000/svg" p-id="51688" data-spm-anchor-id="a313x.search_index.0.i45.5f443a81sPa6Hj" width="200" height="200"><path d="M476.553846 0a476.553846 476.553846 0 1 1 0 953.107692 476.553846 476.553846 0 0 1 0-953.107692z m-46.788923 192.827077c-37.809231 66.796308-110.276923 123.510154-218.033231 169.511385l30.247385 39.069538c66.796308-31.507692 120.989538-66.796308 163.84-106.496h233.156923c-29.617231 51.672615-76.248615 96.413538-140.524308 134.852923-27.096615-23.315692-64.905846-49.782154-112.797538-79.399385L346.584615 374.941538c47.891692 27.096615 85.700923 52.302769 113.427693 75.618462-72.467692 36.548923-163.209846 65.536-272.226462 88.221538l23.945846 43.480616c44.110769-10.712615 85.070769-22.055385 124.140308-34.658462v222.444308h45.371077v-37.179077h281.678769v37.179077H708.923077V504.123077H446.148923C564.617846 449.299692 645.907692 378.722462 691.278769 292.391385V252.061538h-245.76c12.603077-17.014154 23.945846-34.658462 34.028308-53.563076l-49.782154-5.671385z m233.156923 353.516308v142.414769H381.243077V546.343385h281.678769z" fill="#084D79" p-id="51689" data-spm-anchor-id="a313x.search_index.0.i43.5f443a81sPa6Hj" class=""></path></svg>