<svg t="1722687417407" class="icon" viewBox="0 0 1024 1024" version="1.1" xmlns="http://www.w3.org/2000/svg" p-id="11056" width="200" height="200"><path d="M780.8 440.746667v-106.666667A250.453333 250.453333 0 0 0 512 85.333333a250.453333 250.453333 0 0 0-268.8 248.746667v106.666667H128V938.666667h768V440.746667h-115.2m-230.4 274.773333v116.48h-76.8v-116.48a69.973333 69.973333 0 0 1-38.4-61.44 73.813333 73.813333 0 0 1 76.8-70.826667 73.813333 73.813333 0 0 1 76.8 70.826667 69.973333 69.973333 0 0 1-38.4 61.44z m153.6-274.773333h-384V334.506667A174.506667 174.506667 0 0 1 512 156.586667a174.506667 174.506667 0 0 1 192 177.493333v106.666667" fill="#F98DC3" p-id="11057"></path></svg>