<svg t="1722409378352" class="icon" viewBox="0 0 1066 1024" version="1.1" xmlns="http://www.w3.org/2000/svg" p-id="4015" width="200" height="200"><path d="M802.858667 85.333333H221.141333A135.936 135.936 0 0 0 85.333333 221.141333v581.717334A135.936 135.936 0 0 0 221.141333 938.666667h581.717334A135.936 135.936 0 0 0 938.666667 802.944V221.141333A135.936 135.936 0 0 0 802.858667 85.333333z m82.432 692.053334a109.056 109.056 0 0 1-108.928 108.928H246.613333a109.013333 109.013333 0 0 1-108.842666-108.928V247.68A109.056 109.056 0 0 1 246.613333 138.794667h529.749334a109.013333 109.013333 0 0 1 108.928 108.885333V777.386667z" fill="#F98DC3" p-id="4016"></path><path d="M785.450667 294.613333a26.794667 26.794667 0 0 0-26.794667-26.794666h-208.896a26.794667 26.794667 0 0 0 0 53.546666h208.896a26.709333 26.709333 0 0 0 26.794667-26.752z m0 129.749334a26.794667 26.794667 0 0 0-26.794667-26.752h-208.896a26.794667 26.794667 0 0 0 0 53.546666h208.896a26.794667 26.794667 0 0 0 26.794667-26.794666zM435.2 424.533333c0 14.72-11.946667 26.666667-26.666667 26.666667H265.216a26.666667 26.666667 0 0 1-26.666667-26.666667V294.528c0-14.72 11.946667-26.666667 26.666667-26.666667h143.317333c14.72 0 26.666667 11.946667 26.666667 26.666667v129.962667z m350.250667 175.146667a26.794667 26.794667 0 0 0-26.794667-26.794667h-208.896a26.794667 26.794667 0 0 0 0 53.546667h208.896a26.794667 26.794667 0 0 0 26.794667-26.752z m0 129.749333a26.794667 26.794667 0 0 0-26.794667-26.752h-208.896a26.794667 26.794667 0 0 0 0 53.546667h208.896a26.794667 26.794667 0 0 0 26.794667-26.794667z m-350.250667 0.128c0 14.72-11.946667 26.666667-26.666667 26.666667H265.216a26.666667 26.666667 0 0 1-26.666667-26.666667V599.466667c0-14.72 11.946667-26.666667 26.666667-26.666667h143.317333c14.72 0 26.666667 11.946667 26.666667 26.666667v129.962666z" fill="#F98DC3" p-id="4017"></path></svg>