<svg t="1719061446484" class="icon" viewBox="0 0 1024 1024" version="1.1" xmlns="http://www.w3.org/2000/svg" p-id="25979" width="200" height="200"><path d="M855.22432 867.06176c-1.95584 0-4.0192-0.2304-5.8624-0.57344l-407.7568-86.69696c-15.49824-3.32288-25.37472-18.60608-22.16448-34.0992L538.0608 187.49952c2.75456-13.20448 14.58176-22.7328 28.12928-22.7328 1.95584 0 3.91168 0.2304 5.8624 0.57344l407.7568 86.69696a28.04224 28.04224 0 0 1 18.02752 12.51328 28.12416 28.12416 0 0 1 4.0192 21.59104l-118.5024 558.1824c-2.75456 13.20448-14.58176 22.73792-28.12928 22.73792z" fill="#D3D1D7" p-id="25980"></path><path d="M1021.48096 290.39104c5.56032-26.22976-11.21792-52.08064-37.40672-57.63072L576.3072 146.05824a43.55584 43.55584 0 0 0-9.99424-1.18272c-22.84032 0-42.87488 16.18944-47.64672 38.49728L400.05632 741.66272a48.3328 48.3328 0 0 0 6.8352 36.54144 48.13312 48.13312 0 0 0 30.57664 21.08928l407.76192 86.70208a51.11808 51.11808 0 0 0 9.99936 1.06496c22.8352 0 42.87488-16.18432 47.6416-38.49728l118.60992-558.17216z m-157.43488 549.4272v9.53856l-420.74112-89.39008-5.22752-5.23776 0.87552-4.79232 119.16288-560.62976 5.22752-5.23264 4.80256 0.88064L978.2272 272.0768l5.23776 5.23264-0.88576 4.80256-118.53312 557.70624z" fill="#4C4C4C" p-id="25981"></path><path d="M582.85056 293.60128l333.57824 70.85056c3.09248 0.6912 5.04832 3.67616 4.48 6.77376l-5.51424 25.72288a5.8368 5.8368 0 0 1-6.77376 4.48l-333.57824-70.85056a5.82656 5.82656 0 0 1-4.48-6.77376l5.50912-25.71776c0.57856-3.10784 3.67104-5.06368 6.77888-4.48512z m304.1792 217.83552l13.20448-61.89568a5.6832 5.6832 0 0 0-4.48-6.77376L562.18112 371.9168a5.67808 5.67808 0 0 0-6.77376 4.48l-13.20448 61.77792a5.6832 5.6832 0 0 0 4.48 6.77376l333.57312 70.85056c3.0976 0.68608 6.20544-1.25952 6.77376-4.36224z" fill="#4C4C4C" p-id="25982"></path><path d="M178.65216 761.64608c-13.54752 0-25.37984-9.52832-28.1344-22.7328L31.78496 180.72064c-3.328-15.50336 6.66112-30.7712 22.16448-34.10432l407.7568-86.58432a25.54368 25.54368 0 0 1 5.85728-0.57344c13.54752 0 25.37984 9.53344 28.12928 22.7328l118.62016 558.18752c3.33312 15.50336-6.66112 30.77632-22.15936 34.10432l-407.76192 86.69696a31.13472 31.13472 0 0 1-5.73952 0.46592z" fill="#D5DEE0" p-id="25983"></path><path d="M633.81504 636.12928l-118.61504-558.1824c-4.7616-22.29248-24.79616-38.48704-47.6416-38.48704-3.17952 0-6.56384 0.36352-10.05056 1.08032L49.80736 127.232c-26.19392 5.54496-42.97728 31.40608-37.41696 57.63584l118.62016 558.18752c4.7616 22.29248 24.80128 38.48704 47.6416 38.48704 3.17952 0 6.55872-0.3584 10.05056-1.08032l407.7056-86.68672c26.1888-5.5552 42.97216-31.41632 37.40672-57.64608z m-38.7072 19.05152l-7.94624 0.1024-407.59296 86.48192H169.8304l-0.1024-7.95136L51.0976 175.7952v-9.74336l7.94624-0.1024 407.58784-86.59456h9.74336l0.10752 7.94624 118.62528 558.13632v9.74336z" fill="#4C4C4C" p-id="25984"></path><path d="M462.96576 283.38176L129.38752 354.23232a5.6832 5.6832 0 0 1-6.77376-4.48l-9.53344-44.89728a5.6832 5.6832 0 0 1 4.48-6.77376l333.57824-70.85056a5.6832 5.6832 0 0 1 6.77376 4.48l9.52832 44.89728c0.57856 3.0976-1.37216 6.20032-4.47488 6.77376z m28.70784 107.13088l-9.53344-44.89728a5.82656 5.82656 0 0 0-6.77376-4.48L141.78816 411.99104a5.8368 5.8368 0 0 0-4.48 6.77376l9.53344 44.89728c0.68608 3.0976 3.67616 5.05344 6.77376 4.48l333.57824-70.85056c3.10272-0.6912 5.05344-3.67616 4.48-6.77888z" fill="#4C4C4C" p-id="25985"></path><path d="M241.34656 790.70208a28.71296 28.71296 0 0 1-28.70272-28.70784V50.048a28.71808 28.71808 0 0 1 28.70272-28.70784h551.18336a28.71808 28.71808 0 0 1 28.70272 28.70784v711.94112a28.71808 28.71808 0 0 1-28.70272 28.70784H241.34656z" fill="#FFFFFF" p-id="25986"></path><path d="M841.11872 50.048c0-26.79296-21.80096-48.59392-48.5888-48.59392H241.34656c-26.79296 0-48.59392 21.80096-48.59392 48.59392v711.94112c0 26.79296 21.80096 48.59904 48.59392 48.59904h551.18336c26.78784 0 48.5888-21.80608 48.5888-48.59904V50.048z m-44.94336 720.64512l-3.75808 0.11776H237.80864l-5.1712-5.1712-0.11264-3.76832V46.51008l5.16608-5.16608 3.7632-0.11264h550.95296l0.02048 8.81664h8.79616l0.11264 715.48416-5.16096 5.16096z" fill="#4C4C4C" p-id="25987"></path><path d="M208.04608 142.14144h617.78432v39.9616H208.04608v-39.9616z" fill="#4C4C4C" p-id="25988"></path><path d="M611.0976 96.55296a28.70272 28.70272 0 1 0 57.40544 0 28.70272 28.70272 0 1 0-57.40544 0z" fill="#92D976" p-id="25989"></path><path d="M692.62336 96.55296a28.70272 28.70272 0 1 0 57.41056 0 28.70784 28.70784 0 1 0-57.41056 0z" fill="#F44D5A" p-id="25990"></path><path d="M748.3136 323.9168H285.55264V220.5696h462.76096v103.3472z m-324.96128 34.44736H285.55264v352.53248h137.79456V358.36416z m324.96128 0H458.94656v352.53248h289.36704V358.36416z" fill="#D8D7DA" p-id="25991"></path><path d="M241.4592 725.24288c0-0.10752-0.11264-0.10752 0 0l-0.11264-204.39552h78.65856c24.11008 73.26208 93.24032 126.31552 174.5408 126.31552s150.4256-53.05344 174.5408-126.31552h123.4432v204.28288l-0.11264 0.10752H241.4592z" fill="#B8B7BC" p-id="25992"></path><path d="M94.36672 992.22528c-34.7904 0-63.1552-28.3648-63.1552-63.16032v-252.6208c0-34.79552 28.3648-63.1552 63.1552-63.1552h281.6768c13.54752 71.76704 76.70784 126.3104 152.38144 126.3104 75.6736 0 138.82368-54.54336 152.38144-126.3104h258.70848c34.79552 0 63.1552 28.35968 63.1552 63.1552v252.6208c0 34.79552-28.35968 63.16032-63.1552 63.16032H94.36672z" fill="#A3CCAA" p-id="25993"></path><path d="M1022.55104 676.44416c0-45.78304-37.25312-83.0464-83.04128-83.0464h-276.2496c-4.55168 70.42048-63.28832 126.3104-134.84032 126.3104-71.552 0-130.29376-55.88992-134.84544-126.3104H94.36672c-45.79328 0-83.0464 37.25824-83.0464 83.0464v252.6208c0 45.79328 37.25312 83.05152 83.0464 83.05152h845.14304c45.78304 0 83.04128-37.25312 83.04128-83.05152v-252.6208z m-39.77728 252.6208c0 11.54048-4.56704 22.3744-12.85632 30.52544-8.20736 8.20224-19.0208 12.7488-30.40768 12.7488H94.36672a42.496 42.496 0 0 1-30.52032-12.86144c-8.20224-8.20736-12.7488-19.02592-12.7488-30.4128v-252.6208c0-11.53536 4.56704-22.36928 12.85632-30.52032 8.20224-8.20736 19.0208-12.74368 30.40768-12.74368h265.89696l1.9968 6.06208a174.60224 174.60224 0 0 0 166.16448 120.2432 174.60224 174.60224 0 0 0 166.15936-120.2432l1.9968-6.06208h242.93376a42.5472 42.5472 0 0 1 30.52032 12.8512c8.19712 8.20736 12.74368 19.02592 12.74368 30.4128v252.6208z" fill="#4C4C4C" p-id="25994"></path><path d="M94.36672 964.096a33.83808 33.83808 0 0 1-15.8464-4.0192h705.9712c82.3296 0 149.2736-66.944 149.2736-149.27872v-168.22784h5.74464c18.71872 0 34.45248 15.73888 34.45248 34.45248v252.63104c0 18.70848-15.72864 34.45248-34.45248 34.45248H94.36672zM125.94176 718.92992h114.83136v57.41568H125.94176v-57.41568z" fill="#bfcbd9" p-id="25995"></path></svg>