<svg t="1719063593126" class="icon" viewBox="0 0 1024 1024" version="1.1" xmlns="http://www.w3.org/2000/svg" p-id="45532" width="256" height="256"><path d="M469.333333 213.333333h-42.666666V42.666667h341.333333v85.333333h-42.666667V85.333333h-256z" fill="#bfcbd9" p-id="45533"></path><path d="M384 256h256v85.333333H384z" fill="#bfcbd9" p-id="45534"></path><path d="M682.666667 341.333333h-29.866667V245.333333H413.866667V341.333333H384V213.333333h298.666667z" fill="#bfcbd9" p-id="45535"></path><path d="M554.666667 170.666667v78.762666h104.533333V341.333333H853.333333V170.666667z" fill="#bfcbd9" p-id="45536"></path><path d="M853.333333 341.333333h-27.136V158.464h-244.394666v60.970667h95.061333V341.333333h-27.178667V249.898667H554.666667V128h298.666666z" fill="#bfcbd9" p-id="45537"></path><path d="M870.4 384H256l128.597333 298.666667h371.498667c30.037333 0 57.173333-18.474667 65.706667-46.933334l72.917333-220.458666c5.717333-15.616-8.576-31.274667-24.32-31.274667z" fill="#bfcbd9" p-id="45538"></path><path d="M741.717333 725.333333h-371.626666v-42.496h371.626666c24.32 0 45.696-16.298667 52.864-40.064C837.461333 498.688 857.941333 426.666667 856.021333 426.666667H298.666667V384h557.354666c12.885333 0 25.728 7.424 32.853334 17.792a38.954667 38.954667 0 0 1 5.76 32.682667l-72.917334 231.509333c-11.434667 35.584-42.837333 59.349333-80 59.349333z" fill="#bfcbd9" p-id="45539"></path><path d="M469.333333 426.666667h42.666667v213.333333h-42.666667v-213.333333z m128 0h42.666667v213.333333h-42.666667v-213.333333z m85.333334 0h42.666666v213.333333h-42.666666v-213.333333z" fill="#bfcbd9" p-id="45540"></path><path d="M426.666667 554.666667h298.666666v42.666666h-298.666666v-42.666666z m-42.666667-85.333334h384v42.666667H384v-42.666667z" fill="#bfcbd9" p-id="45541"></path><path d="M384 917.333333a64 64 0 1 0 128 0 64 64 0 0 0-128 0zM810.666667 917.333333c0 36.266667-27.733333 64-64 64s-64-27.733333-64-64 27.733333-64 64-64c34.133333 0 64 27.733333 64 64zM64 298.666667h163.072l213.333333 469.333333H832v42.666667H412.928l-213.333333-469.333334H64z" fill="#bfcbd9" p-id="45542"></path></svg>