<svg t="1719063454358" class="icon" viewBox="0 0 1024 1024" version="1.1" xmlns="http://www.w3.org/2000/svg" p-id="38984" width="200" height="200"><path d="M634.88 969.728H348.16v-81.92h286.72c177.152 0 239.616-155.648 239.616-301.056v-450.56H267.264v514.048h-81.92V136.192c0-45.056 36.864-81.92 81.92-81.92h608.256c45.056 0 81.92 36.864 81.92 81.92v449.536C957.44 819.2 830.464 969.728 634.88 969.728z" fill="#bfcbd9" p-id="38985"></path><path d="M629.76 969.728h-399.36c-90.112 0-163.84-62.464-163.84-138.24v-49.152c0-76.8 73.728-138.24 163.84-138.24h402.432v81.92H230.4c-44.032 0-81.92 25.6-81.92 56.32v49.152c0 29.696 37.888 56.32 81.92 56.32h399.36v81.92zM717.824 328.704H423.936c-22.528 0-40.96-18.432-40.96-40.96s18.432-40.96 40.96-40.96h293.888c22.528 0 40.96 18.432 40.96 40.96s-18.432 40.96-40.96 40.96zM641.024 503.808H423.936c-22.528 0-40.96-18.432-40.96-40.96s18.432-40.96 40.96-40.96h217.088c22.528 0 40.96 18.432 40.96 40.96s-18.432 40.96-40.96 40.96z" fill="#bfcbd9" p-id="38986"></path><path d="M632.832 951.296c-84.992 0-154.624-69.632-154.624-154.624s69.632-154.624 154.624-154.624 154.624 69.632 154.624 154.624-69.632 154.624-154.624 154.624z m0-226.304c-39.936 0-72.704 32.768-72.704 72.704s32.768 72.704 72.704 72.704c39.936 0 72.704-32.768 72.704-72.704s-32.768-72.704-72.704-72.704z" fill="#bfcbd9" p-id="38987"></path></svg>