<svg t="1719062987777" class="icon" viewBox="0 0 1024 1024" version="1.1" xmlns="http://www.w3.org/2000/svg" p-id="31417" width="200" height="200"><path d="M187.870968 197.16129l387.612903 83.096775c12.903226 3.096774 20.129032 14.967742 18.064516 27.870967-3.096774 12.903226-14.967742 20.129032-26.83871 18.064516L185.806452 244.129032l-20.645162 94.967742h309.161291c12.903226 0 22.193548 10.322581 22.193548 22.193549 0 12.903226-9.806452 22.193548-22.193548 22.193548H265.806452v22.193548c0 12.903226-10.322581 23.225806-23.225807 23.225807s-23.225806-10.322581-23.225806-23.225807v-22.193548H70.193548l33.548387 44.903226a23.225806 23.225806 0 0 1 0 27.870968l-50.580645 68.129032 50.580645 70.709677a23.225806 23.225806 0 0 1 0 27.870968l-50.580645 68.129032 50.580645 68.129032c6.709677 8.258065 6.709677 19.612903 0 27.870968l-33.548387 44.903226h149.161291v-22.193548c0-12.903226 10.322581-23.225806 23.225806-23.225807s23.225806 10.322581 23.225807 23.225807v22.193548h734.451613c33.548387 3.612903 28.903226 45.419355-0.51613 45.419355H23.741935c-8.774194 0-17.032258-5.16129-20.645161-13.419355-3.612903-7.225806-3.096774-17.032258 2.064516-23.741935l50.580645-68.129033L5.16129 702.451613c-6.709677-8.258065-6.709677-19.612903 0-27.870968l50.580645-68.129032L5.16129 538.83871c-6.709677-8.258065-6.709677-19.612903 0-27.870968l50.580645-68.129032L5.16129 375.225806c-5.16129-6.709677-6.193548-16.516129-2.064516-24.774193 3.612903-8.258065 11.870968-12.903226 20.645161-12.903226h95.483871l23.741936-112.516129c4.645161-19.096774 24.258065-32.516129 44.903226-27.870968z m641.548387 514.064516c12.903226 0 23.225806 10.322581 23.225806 23.225807s-10.322581 23.225806-23.225806 23.225806H393.806452c-12.903226 0-23.225806-10.322581-23.225807-23.225806s10.322581-23.225806 23.225807-23.225807h435.612903zM259.612903 630.709677c4.645161 4.645161 6.709677 10.322581 6.709678 17.032258V727.741935c0 12.903226-10.322581 23.225806-23.225807 23.225807s-23.225806-10.322581-23.225806-23.225807v-80.516129c0-12.903226 9.806452-22.193548 22.193548-22.193548 7.225806-1.032258 12.903226 1.032258 17.548387 5.677419z m522.322581-8.258064c12.903226 0 22.193548 10.322581 22.193548 22.193548 0.516129 6.193548-2.064516 12.903226-6.193548 17.032258-3.612903 4.645161-9.806452 6.709677-14.967742 6.709678H394.83871c-12.903226 0-23.225806-10.322581-23.225807-23.225807s10.322581-23.225806 23.225807-23.225806c0 0.516129 387.096774 0.516129 387.096774 0.516129zM243.096774 463.483871c12.903226 0 23.225806 10.322581 23.225807 23.225806v80.516129c0 12.903226-10.322581 23.225806-23.225807 23.225807s-23.225806-10.322581-23.225806-23.225807V486.709677c0-12.903226 10.83871-23.225806 23.225806-23.225806z m245.67742-5.677419c12.903226 0 23.225806 10.322581 23.225806 23.225806s-10.322581 23.225806-23.225806 23.225807H393.806452c-12.903226 0-23.225806-10.322581-23.225807-23.225807s10.322581-23.225806 23.225807-23.225806h94.967742z" fill="#bfcbd9" p-id="31418"></path><path d="M778.322581 115.612903c11.354839 0 19.612903 10.322581 20.129032 23.741936l1.548387 73.290322h84.129032c13.419355 0 24.774194 11.354839 24.774194 24.774194v85.16129h90.32258c8.258065 0 15.483871 3.612903 20.129033 10.322581 4.645161 6.709677 6.193548 14.967742 3.096774 22.193548L960 535.225806h35.612903c13.419355 0 21.677419 4.645161 21.67742 18.064517s-8.258065 18.064516-21.67742 18.064516h-27.870968c-28.903226 0.516129-48.516129 0.516129-70.193548-7.225807-18.580645-7.225806-32-16.516129-42.322581-26.838709-1.548387 2.064516-3.612903 4.645161-6.193548 6.709677-18.064516 18.064516-42.322581 27.870968-72.258064 27.870968-38.193548 0-64-13.935484-80.516129-32l-4.645162 4.645161c-28.387097 25.290323-72.258065 30.451613-102.193548 30.451613-15.483871 0-27.870968-1.548387-30.451613-1.548387-13.419355-1.548387-21.677419-10.322581-19.612903-23.741936 1.548387-13.419355 12.903226-13.419355 26.32258-11.870967 3.096774 0.516129 7.225806 0.516129 12.903226 0.516129l-41.290322-129.032258c-2.064516-7.225806-0.516129-15.483871 3.612903-22.193549 4.645161-6.709677 11.870968-10.322581 19.612903-10.32258h90.322581V236.387097c0-13.419355 11.354839-24.774194 24.774193-24.774194h85.161291l-1.548388-72.258064c0-12.387097 8.774194-23.741935 19.096775-23.741936z m210.064516 239.483871h-197.67742l-43.870967 46.451613c-4.645161 4.645161-11.354839 7.225806-18.064516 7.225807H578.064516l35.612903 127.483871c18.064516-2.064516 35.096774-6.709677 46.451613-16.51613 7.225806-6.709677 10.322581-15.483871 10.322581-27.870967 0-13.419355 9.806452-23.741935 23.225806-24.774194 13.419355-0.516129 24.774194 8.774194 25.290323 21.67742 0.516129 7.225806 8.258065 45.419355 58.83871 45.419354 17.032258 0 28.903226-4.645161 38.193548-12.903225 11.870968-12.903226 12.903226-31.483871 13.419355-33.548388v-0.516129c0-13.419355 11.354839-23.741935 23.741935-23.741935 12.903226 0 24.774194 10.322581 24.774194 23.741935v0.516129c0 3.096774 2.064516 28.903226 38.709677 42.322581 3.096774 1.548387 6.193548 2.064516 9.806452 3.096774l61.935484-178.064516z m-88.774194 39.741936c13.419355 0 24.774194 11.354839 24.774194 25.290322s-11.354839 25.290323-24.774194 25.290323c-13.419355 0-24.774194-11.354839-24.774193-25.290323-1.032258-13.935484 10.322581-25.290323 24.774193-25.290322z m-25.806451-147.096775h-186.83871v128.51613h31.483871l43.870968-46.451613c4.645161-4.645161 11.354839-7.225806 18.064516-7.225807h93.935484l-0.516129-74.83871z" fill="#bfcbd9" p-id="31419"></path></svg>