<svg t="1718373649567" class="icon" viewBox="0 0 1024 1024" version="1.1" xmlns="http://www.w3.org/2000/svg" p-id="30231" width="200" height="200"><path d="M445.44 608.208L277.232 815.232a96 96 0 1 1-164.528 43.68l-31.856-27.184a48 48 0 0 1-5.872-67.072L239.68 565.088a48 48 0 0 1 67.584-6.464l56.704 48.368 28.864-35.536a76.672 76.672 0 0 1 3.216-82.4c48.432-69.792 97.456-139.584 147.072-209.36a32 32 0 0 1 3.472-4.112c21.712-21.68 47.536-33.68 76.256-34.896 31.232-1.328 40.4-1.056 55.616 3.648a108.48 108.48 0 0 1 24.96 11.68c34.944 21.44 57.84 51.04 68 87.36a2322.576 2322.576 0 0 1 41.584 41.712c24.4 25.28 63.52 61.344 117.104 107.968l2.016 1.92a75.936 75.936 0 0 1-109.248 105.488l-77.04-79.776-10.736 43.312c47.12 104.896 81.216 184.08 102.352 237.696 11.152 28.288 18.784 49.696 23.008 64.64 2.512 8.88 4 15.968 4.352 22.208 0.352 5.888-0.128 11.344-2.448 17.296a94.528 94.528 0 0 1-8.88 27.984c-12.752 25.392-37.072 41.536-70.592 41.536-26.24 0-46.864-14.48-63.6-36.592a149.184 149.184 0 0 1-17.472-29.472l-62.464-119.984-78.32 147.28a75.936 75.936 0 1 1-134.08-71.296l118.576-223.008 7.008-16.72c-10.112-21.072-15.344-40.48-15.344-58.528 0-3.376 0.208-7.44 0.64-12.176a1302.88 1302.88 0 0 1-17.344 23.68 76.896 76.896 0 0 1-75.056 29.664z m-121.856 48.48l-44.896-38.32-144.32 174.88 12.96 11.056a95.584 95.584 0 0 1 72.096-19.424l104.16-128.208z m440.368-209.072c0.96 0.784 1.856 1.6 2.72 2.512l102.24 105.872a11.936 11.936 0 0 0 17.808-15.856c-53.36-46.448-92.8-82.832-118.576-109.392l-4.192 16.864z m-53.888-86.048c-5.728-21.424-18.864-37.952-40.112-50.992a46.576 46.576 0 0 0-10.4-5.088c-5.44-1.68-10.816-1.84-34-0.864-11.52 0.48-21.824 5.008-31.952 14.528-48.896 68.8-97.216 137.6-144.96 206.4a12.64 12.64 0 0 0 20.496 14.8c31.44-41.92 65.424-93.232 102.016-154.08 18.672-31.04 66.416-12.048 58.688 23.328-18.96 86.768-28.64 140.848-28.64 157.44 0 12.512 7.664 31.984 24.144 57.12l1.616 2.768 132.176 253.856 1.12 2.352c4.912 11.68 17.424 28.224 22.64 28.224 8.464 0 11.152-1.792 13.392-6.256 1.872-3.712 2.608-8.112 2.608-9.536 0-2.768 0.352-5.456 1.008-8.016a144.768 144.768 0 0 0-1.024-3.824c-3.52-12.432-10.528-32.096-20.96-58.56-21.36-54.176-56.64-135.92-105.712-245.008a32 32 0 0 1-1.888-20.832l43.072-173.696a112.176 112.176 0 0 0-1.424-15.2 32.048 32.048 0 0 1-1.904-8.864z m-106.56 358.88l-13.376-25.696-106.656 200.592a11.936 11.936 0 1 0 21.072 11.2l98.944-186.112zM734.368 240a112 112 0 1 1 0-224 112 112 0 0 1 0 224z m0-64a48 48 0 1 0 0-96 48 48 0 0 0 0 96z m-528 736a32 32 0 1 0 0-64 32 32 0 0 0 0 64z" fill="#bfc" p-id="30232"></path></svg>