<svg t="1718373522375" class="icon" viewBox="0 0 1024 1024" version="1.1" xmlns="http://www.w3.org/2000/svg" p-id="29253" width="200" height="200"><path d="M782.387685 268.823562l-0.302899-88.985684c0 0-68.323085-5.097088-120.097262-12.255115C604.304777 132.052548 529.823436 77.535911 529.823436 77.535911L107.254258 356.559788l858.137415 0L782.387685 268.823562 782.387685 268.823562zM464.111828 913.035746l124.328633 0L588.440461 700.0407 464.111828 700.0407 464.111828 913.035746 464.111828 913.035746zM872.052844 699.168844l2.375094-233.974869c0 0 2.104941-42.181705-28.882817-42.181705l-647.630027 0c0 0-14.994506 13.933337-14.994506 43.051515L182.920588 700.657754 49.634956 700.657754l0 209.320353 139.320069 0 0-7.347339c4.354168 5.732561 11.638061 10.404977 24.146956 10.404977 105.404632-0.064468 177.463808-0.319272 177.463808-0.319272l0.319272-279.638885c0 0-12.511965-68.133773 19.47454-68.133773l252.751514 0c0 0 2.106987 37.149085 2.106987 68.133773l0.998747 279.018761 160.727635 0c15.739473 0 26.948769-9.149381 34.042327-17.543561l0 15.421224 144.420227 0L1005.407038 699.168844 872.052844 699.168844 872.052844 699.168844zM251.798305 563.884694l67.022463 0 0 68.324108-67.022463 0L251.798305 563.884694 251.798305 563.884694zM320.62895 769.785158l-68.957535 0 0-66.768683 68.957535 0L320.62895 769.785158 320.62895 769.785158zM802.858926 700.466396 735.215316 700.466396l0-67.005067 67.64361 0L802.858926 700.466396 802.858926 700.466396z" fill="#a074c4" p-id="29254"></path></svg>