<svg t="1721095399266" class="icon" viewBox="0 0 1024 1024" version="1.1" xmlns="http://www.w3.org/2000/svg" p-id="17762" width="200" height="200"><path d="M603.4 448.9h-43.1l-20.9-20.3-26.6-26.6c98.2-0.6 178.6-80.5 178.6-179.3 0-98.2-80.5-178.6-179.3-178.6-98.2 0-178.6 80.5-178.6 178.6 0 98.8 80.5 178.6 178.6 178.6l-26.6 27.2-20.9 20.3h-43.1c-128 0-231.2 103.9-231.2 231.8v302.2h644.2v-302c0.1-128-103.8-231.9-231.1-231.9z m-45.6 344.6l-45.6 45.6-45-45.6 35.5-257.8-35.5-34.8 45-45.6 45.6 45.6-35.5 34.8 35.5 257.8zM371.6 222.8c0-77.3 63.3-140.6 140.6-140.6 77.9 0 141.3 63.3 141.3 140.6 0 77.9-63.3 140.6-141.3 140.6-77.3 0-140.6-62.7-140.6-140.6z m425 722.1h-90V670H668v274.9H353.2V670h-38v274.9h-86.8V680.8c0.6-107.1 86.8-193.2 193.2-193.2h5.1l-13.3 13.3 27.2 26.6 21.5 22.2-32.3 238.8-3.2 19 13.9 13.3 45 45 26.6 27.2 27.2-27.2 45-45 13.3-13.3-2.5-19-32.9-238.8 22.2-22.2 27.2-26.6-13.3-13.3h5.1c106.4 0 192.6 86.2 193.2 193.2v264.1z" fill="#bfc" p-id="17763"></path></svg>