<svg t="1719214796865" class="icon" viewBox="0 0 1024 1024" version="1.1" xmlns="http://www.w3.org/2000/svg" p-id="90853" data-spm-anchor-id="a313x.search_index.0.i56.5f443a81sPa6Hj" width="200" height="200"><path d="M512.296812 72.644638l378.494145 219.685101v439.340522L512.281971 951.355362 133.787826 731.670261V292.329739L512.296812 72.644638z m0-59.807537L82.261333 262.440812v499.148058l430.005797 249.574029 430.020638-249.574029V262.425971L512.296812 12.851942z" fill="#ff8800" p-id="90854"></path><path d="M281.614841 375.214377l61.647768 218.245565c6.975072-27.232464 15.10771-57.774377 24.412753-91.625739 9.305043-33.836522 21.192348-76.428986 35.676754-127.792232h53.114435l-79.10029 275.916058h-69.394551a11528.236522 11528.236522 0 0 0-43.794551-151.373913 9054.311884 9054.311884 0 0 0-37.606029-123.369739h55.058551z m209.356058-0.786551h50.012753v275.530203h-50.012753V374.427826z m102.340637 0h107.77229c28.16742 0 51.378087 8.221681 69.602319 24.635362 18.209391 16.443362 27.321507 38.481623 27.321507 66.174145 0 16.547246-3.769507 31.551072-11.27884 45.011479-10.091594 17.853217-24.338551 30.393507-42.74087 37.63571-13.994667 5.431652-33.302261 8.162319-57.922783 8.162319h-41.969159v93.911188h-50.784464V374.427826z m102.934261 139.130435c15.048348 0 26.980174-4.927072 35.795478-14.810899 8.830145-9.868986 13.237797-22.468638 13.237797-37.798956 0-14.291478-5.060638-25.006377-15.181913-32.159536-10.106435-7.138319-22.438957-10.714899-36.953043-10.714899H644.081159v95.48429h52.149798z" fill="#ff8800" p-id="90855" data-spm-anchor-id="a313x.search_index.0.i55.5f443a81sPa6Hj" class="selected"></path></svg>