<svg t="1719209229078" class="icon" viewBox="0 0 1024 1024" version="1.1" xmlns="http://www.w3.org/2000/svg" p-id="47793" width="200" height="200"><path d="M991.784 675.664l-149.872 197.336H180.84L30.96 675.664h960.824z m0 0M810.848 483.4h104.904v104.904h-104.904V483.4z m-158.32 0h104.896v104.904H652.528V483.4z m-158.344 0h104.912v104.904H494.184V483.4z m0 0" fill="#42BC90" p-id="47794"></path><path d="M164.432 261.608h125.904v344.688H164.432z" fill="#F78B3C" p-id="47795"></path><path d="M841.912 894.904H180.84c-6.84 0-13.296-3.2-17.432-8.664L13.528 688.912a21.864 21.864 0 0 1-2.168-22.968 21.872 21.872 0 0 1 19.616-12.184h960.832c8.312 0 15.904 4.744 19.608 12.184s2.856 16.344-2.168 22.968l-149.864 197.328a21.96 21.96 0 0 1-17.472 8.664z m-650.2-43.8h639.328l116.608-153.536H75.104l116.608 153.536z m407.384-240.896H494.184a21.912 21.912 0 0 1-21.904-21.912V483.4a21.88 21.88 0 0 1 21.904-21.896h104.912a21.928 21.928 0 0 1 21.904 21.896v104.904a21.944 21.944 0 0 1-21.904 21.904zM516.12 566.4h61.08v-61.096h-61.08V566.4z m241.304 43.808H652.528a21.896 21.896 0 0 1-15.48-6.44 21.84 21.84 0 0 1-6.424-15.472V483.4a21.896 21.896 0 0 1 21.904-21.896h104.896a21.912 21.912 0 0 1 21.888 21.896v104.904c0 5.816-2.296 11.368-6.4 15.472a21.96 21.96 0 0 1-15.488 6.432zM674.432 566.4h61.096v-61.096h-61.096V566.4z m241.32 43.808h-104.904a21.92 21.92 0 0 1-21.904-21.912V483.4a21.92 21.92 0 0 1 21.904-21.896h104.904a21.904 21.904 0 0 1 21.88 21.896v104.904a21.92 21.92 0 0 1-21.88 21.904zM832.744 566.4h61.112v-61.096h-61.112V566.4z m0 0" fill="#4F46A3" p-id="47796"></path><path d="M966.136 638a21.92 21.92 0 0 1-21.912-21.88V450.048H448.568v166.072a21.888 21.888 0 0 1-21.904 21.872 21.888 21.888 0 0 1-21.896-21.872V428.168a21.88 21.88 0 0 1 21.896-21.904h539.472a21.888 21.888 0 0 1 21.904 21.904v187.96c0 5.8-2.312 11.376-6.4 15.48a21.944 21.944 0 0 1-15.504 6.392z m0 0" fill="#4F46A3" p-id="47797"></path><path d="M426.664 638H30.96a21.904 21.904 0 0 1-18.96-32.824 21.896 21.896 0 0 1 18.96-10.952h395.704a21.896 21.896 0 0 1 0 43.776z m0 0" fill="#4F46A3" p-id="47798"></path><path d="M290.336 628.176H164.432a21.88 21.88 0 0 1-21.904-21.888V261.608a21.904 21.904 0 0 1 21.904-21.904h125.904a21.904 21.904 0 0 1 21.904 21.904v344.688a21.92 21.92 0 0 1-6.416 15.48c-4.112 4.096-9.672 6.4-15.488 6.4zM186.32 584.4h82.128V283.504H186.32V584.4z m520.928-359.984c-46.176 0-70.832-20.088-90.608-36.216-18.056-14.72-32.336-26.36-62.904-26.36-30.592 0-44.888 11.64-62.984 26.368-19.784 16.12-44.416 36.208-90.576 36.208-46.152 0-70.776-20.088-90.576-36.208-18.064-14.736-32.328-26.368-62.936-26.368a21.888 21.888 0 0 1 0-43.792c46.184 0 70.824 20.08 90.608 36.216 18.064 14.728 32.328 26.36 62.904 26.36s44.848-11.632 62.896-26.36c19.8-16.136 44.44-36.216 90.664-36.216 46.16 0 70.8 20.08 90.56 36.2 18.08 14.736 32.352 26.368 62.952 26.368a21.888 21.888 0 1 1 0 43.8z m0 0" fill="#4F46A3" p-id="47799"></path><path d="M709.368 320.328c-50.104 0-75.984-18.864-98.832-35.512-20.792-15.144-37.216-27.112-73.112-27.112a21.888 21.888 0 0 1-21.88-21.904 21.88 21.88 0 0 1 21.88-21.888c50.136 0 76.04 18.856 98.896 35.512 20.8 15.144 37.224 27.112 73.048 27.112 35.872 0 52.304-11.984 73.096-27.12 22.848-16.648 48.76-35.504 98.856-35.504a21.896 21.896 0 1 1 0 43.792c-35.84 0-52.272 11.96-73.064 27.104-22.848 16.648-48.752 35.52-98.888 35.52z m0 0" fill="#4F46A3" p-id="47800"></path></svg>
