<svg t="1720920402103" class="icon" viewBox="0 0 1199 1024" version="1.1" xmlns="http://www.w3.org/2000/svg" p-id="45960" width="200" height="200"><path d="M1191.16751 675.79c-11.45-10.99-29.64-10.63-40.65 0.82-9.85 10.25-19.65 19.32-29.42 27.85l56.27-148.61c4.77-12 3.3-25.53-3.94-36.2a38.835 38.835 0 0 0-32.18-17.07H998.21751L790.83751 342v-31.24c0-26.78-21.79-48.57-48.56-48.57h-89.79v-33.41h17.61c15.88 0 28.75-12.87 28.75-28.75s-12.87-28.75-28.75-28.75h-17.61v-20.43h17.61c15.88 0 28.75-12.87 28.75-28.75s-12.87-28.75-28.75-28.75h-17.61V75.74c0-15.88-12.87-28.75-28.75-28.75s-28.75 12.87-28.75 28.75v17.61h-17.61c-15.88 0-28.75 12.87-28.75 28.75s12.87 28.75 28.75 28.75h17.61v20.43h-17.61c-15.88 0-28.75 12.87-28.75 28.75s12.87 28.75 28.75 28.75h17.61v33.41h-42.97c-14.06 0-27.41 6.08-36.65 16.7l-79.59 91.53c-6.92 7.98-10.85 17.99-11.6 28.45h-95.17c-14.94 0-28.84 6.7-38.16 18.36l-68.09 85.35h-173.5c-12.32 0-24.02 5.91-31.32 15.83-7.29 9.92-9.46 22.85-5.8 34.61L85.69751 736.48c-16.34 10.2-32.79 21.2-49.46 33.94-12.62 9.64-15.03 27.68-5.39 40.3 9.64 12.65 27.7 15.03 40.3 5.41 85.32-65.19 163.25-92.48 231.39-81.23 36.68 6.06 62.17 21.62 89.15 38.09 29.55 18.04 63.06 38.48 111.65 45.41 67.65 9.55 108.16-20.27 143.85-46.68 28.83-21.32 53.82-39.81 93.53-39.81 0.95 0 1.92 0 2.88 0.04 43.09 0.95 69.97 19.84 101.08 41.7 33.07 23.25 70.57 49.6 128.71 51.7 2.44 0.09 4.89 0.13 7.33 0.13 70.68 0 141.7-36.65 211.25-109.03 11.01-11.45 10.65-29.66-0.8-40.66zM904.31751 502.58H790.83751v-87.87l113.48 87.87zM556.08751 319.69h177.25v69.57H583.02751c-15.88 0-28.75 12.87-28.75 28.75s12.87 28.75 28.75 28.75h150.31v55.82H481.37751V405.6l74.71-85.91zM333.19751 456.36h90.69v46.21H296.32751l36.87-46.21z m642.26 311.52c-41.09-1.48-67.34-19.92-97.72-41.27-33.89-23.81-72.3-50.82-132.87-52.17-60.89-1.01-98.69 26.47-131.88 51.04-31.95 23.62-57.15 42.21-101.55 35.97-36.86-5.24-61.39-20.21-89.8-37.55-29.07-17.74-62.02-37.85-109.73-45.73-55.18-9.19-113.96 1.26-175.49 30.33l-59.58-148.44h1037.44l-74.26 196.12c-21.89 8.54-43.45 12.47-64.56 11.7z" fill="#ed8888" p-id="45961"></path><path d="M1125.57751 828.41c-60.15 62.59-119.1 93.06-175.05 91.27-41.09-1.48-67.34-19.92-97.71-41.27-33.89-23.81-72.31-50.8-132.87-52.15-60.95-0.92-98.69 26.47-131.89 51.04-31.96 23.62-57.28 42.26-101.54 35.97-36.85-5.24-61.38-20.21-89.78-37.55-29.08-17.74-62.04-37.87-109.75-45.75-84.51-14.07-177.26 17.06-275.69 92.25-12.62 9.64-15.03 27.68-5.39 40.3 9.65 12.65 27.68 15.03 40.3 5.41 85.33-65.17 163.25-92.5 231.39-81.23 36.69 6.06 62.18 21.64 89.17 38.11 29.55 18.02 63.04 38.48 111.62 45.41 67.68 9.55 108.16-20.29 143.84-46.68 29.52-21.86 54.65-41.23 96.43-39.77 43.1 0.94 69.97 19.82 101.08 41.7 33.08 23.25 70.57 49.58 128.7 51.68 2.46 0.09 4.91 0.13 7.37 0.13 70.64 0 141.67-36.65 211.22-109.03 11.01-11.44 10.64-29.65-0.8-40.65-11.43-10.99-29.63-10.65-40.65 0.81z" fill="#ed8888" p-id="45962"></path></svg>